# Blender3D v244 OBJ File: gumball-machine.blend
# www.blender3d.org
mtllib gumball-machine.mtl
o Cube.002_Mesh
v -0.000000 2.500000 -1.300000
v -1.000000 2.000000 -1.300000
v -0.707107 2.000000 -0.592893
v -0.707107 2.000000 -2.007107
v 0.000000 2.000000 -2.300000
v 0.707107 2.000000 -2.007107
v 1.000000 2.000000 -1.300000
v 0.707107 2.000000 -0.592893
v 0.000000 2.000000 -0.300000
v -0.000000 2.000000 -1.300000
v -0.091569 1.058746 -1.652223
v -0.491563 1.058746 -1.782192
v -0.381008 1.279860 -1.441936
v -0.091569 1.058746 -1.231647
v -0.738778 1.058746 -1.441936
v -0.491563 1.058746 -1.101679
v -0.023238 0.700974 -1.441936
v -0.270454 0.700974 -1.782192
v -0.670448 0.700974 -1.652223
v -0.670448 0.700974 -1.231647
v -0.270454 0.700974 -1.101679
v -0.381008 0.479860 -1.441935
v 0.505794 0.700974 -0.938709
v 0.258578 0.700974 -0.598453
v 0.148024 0.479860 -0.938709
v -0.141416 0.700974 -0.728422
v -0.141416 0.700974 -1.148998
v 0.258578 0.700974 -1.278965
v 0.437464 1.058746 -0.728422
v 0.037470 1.058746 -0.598453
v -0.209746 1.058746 -0.938709
v 0.037470 1.058746 -1.278965
v 0.437464 1.058746 -1.148998
v 0.148024 1.279860 -0.938709
v 0.608536 1.058746 -1.436365
v 0.507503 1.058746 -1.844629
v 0.277056 1.279860 -1.570968
v 0.251478 1.058746 -1.214117
v 0.087997 1.058746 -1.874705
v -0.070233 1.058746 -1.485021
v 0.466115 0.700974 -1.267231
v 0.624345 0.700974 -1.656914
v 0.302634 0.700974 -1.927818
v -0.054423 0.700974 -1.705570
v 0.046609 0.700974 -1.297307
v 0.277056 0.479860 -1.570968
v -0.286217 1.204200 -1.473770
v 0.102215 1.204200 -1.635048
v 0.018992 0.983086 -1.287097
v 0.375631 1.204200 -1.315470
v 0.156187 1.204200 -0.956682
v -0.252856 1.204200 -1.054512
v -0.118204 1.561972 -1.617511
v 0.290839 1.561972 -1.519681
v 0.324201 1.561972 -1.100423
v -0.064231 1.561972 -0.939145
v -0.337647 1.561972 -1.258724
v 0.018992 1.783086 -1.287097
v 1.000000 0.500000 -2.300000
v 1.500000 -1.500000 -2.300000
v -1.500000 -1.500000 -2.300000
v -1.000000 0.500000 -2.300000
v 1.000000 0.499999 -0.300000
v 1.499999 -1.500001 -0.300000
v -1.500000 -1.500000 -0.300000
v -1.000000 0.500000 -0.300000
v 0.100000 2.000000 -0.500000
v 0.100000 0.500000 -0.500000
v -0.000000 0.500000 -0.600000
v 0.000000 2.000000 -0.600000
v -0.100000 0.500000 -0.500000
v -0.100000 2.000000 -0.500000
v -0.000000 0.500000 -0.400000
v 0.000000 2.000000 -0.400000
v 0.636396 2.000000 -0.663604
v 0.636396 0.500000 -0.663604
v 0.636396 0.500000 -0.805025
v 0.636396 2.000000 -0.805025
v 0.494975 2.000000 -0.663604
v 0.494975 0.500000 -0.663604
v 0.494975 2.000000 -0.805025
v 0.494975 0.500000 -0.805025
v 0.800000 2.000000 -1.400000
v 0.800000 0.500000 -1.400000
v 0.700000 0.500000 -1.300000
v 0.700000 2.000000 -1.300000
v 0.800000 0.500000 -1.200000
v 0.800000 2.000000 -1.200000
v 0.900000 0.500000 -1.300000
v 0.900000 2.000000 -1.300000
v 0.636396 2.000000 -1.936396
v 0.636396 0.500000 -1.936396
v 0.494975 0.500000 -1.936396
v 0.494975 2.000000 -1.936396
v 0.636396 2.000000 -1.794975
v 0.636396 0.500000 -1.794975
v 0.494975 2.000000 -1.794975
v 0.494975 0.500000 -1.794975
v -0.100000 2.000000 -2.100000
v -0.100000 0.500000 -2.100000
v 0.000000 0.500000 -2.000000
v 0.000000 2.000000 -2.000000
v 0.100000 0.500000 -2.100000
v 0.100000 2.000000 -2.100000
v 0.000000 0.500000 -2.200000
v 0.000000 2.000000 -2.200000
v -0.636396 2.000000 -1.936396
v -0.636396 0.500000 -1.936396
v -0.636396 0.500000 -1.794975
v -0.636396 2.000000 -1.794975
v -0.494975 2.000000 -1.936396
v -0.494975 0.500000 -1.936396
v -0.494975 2.000000 -1.794975
v -0.494975 0.500000 -1.794975
v -0.800000 2.000000 -1.200000
v -0.800000 0.500000 -1.200000
v -0.700000 0.500000 -1.300000
v -0.700000 2.000000 -1.300000
v -0.800000 0.500000 -1.400000
v -0.800000 2.000000 -1.400000
v -0.900000 0.500000 -1.300000
v -0.900000 2.000000 -1.300000
v -0.636396 2.000000 -0.663604
v -0.636396 0.500000 -0.663604
v -0.494975 0.500000 -0.663604
v -0.494975 2.000000 -0.663604
v -0.636396 2.000000 -0.805025
v -0.636396 0.500000 -0.805025
v -0.494975 2.000000 -0.805025
v -0.494975 0.500000 -0.805025
v 0.500000 -0.500001 -0.300000
v 0.500000 -1.500000 -0.300000
v 0.500000 -1.500000 -0.800000
v -0.500000 -1.500000 -0.300000
v -0.500000 -0.500000 -0.300000
v -0.500000 -1.500000 -0.800000
v -0.500000 0.000000 -1.300000
v 0.500000 0.000000 -1.300000
vt 1.166667 0.750000 0.0
vt 0.833334 0.250000 0.0
vt 0.833333 -0.250000 0.0
vt 1.500000 -0.250000 0.0
vt 1.500000 -0.500000 0.0
vt 1.500000 1.500000 0.0
vt 0.833333 1.500000 0.0
vt 0.833333 1.000000 0.0
vt -0.500000 -0.249999 0.0
vt 0.166667 -0.250000 0.0
vt 0.166667 0.250000 0.0
vt -0.166666 0.750000 0.0
vt 1.166667 0.750000 0.0
vt -0.166666 0.750000 0.0
vt 0.166667 0.250000 0.0
vt 0.833334 0.250000 0.0
vt -0.500000 1.500000 0.0
vt -0.500000 -0.500000 0.0
vt 0.166667 1.000000 0.0
vt 0.166667 1.500000 0.0
vt -0.500000 -0.500000 0.0
vt 1.500000 -0.500000 0.0
vt 0.833333 1.000000 0.0
vt 0.166667 1.000000 0.0
vt 0.835286 0.093750 0.0
vt 0.835287 0.843750 0.0
vt 0.168620 0.843750 0.0
vt 0.168620 0.093750 0.0
vt 0.459161 1.145171 0.0
vt 0.768495 0.534516 0.0
vt -0.154106 0.839548 0.0
vt -0.155187 1.144934 0.0
vt -0.172353 1.076533 0.0
vt -0.171273 0.771147 0.0
vt 0.751329 0.466114 0.0
vt 0.441995 1.076769 0.0
vt 0.833333 1.500000 0.0
vt 0.166667 1.500000 0.0
vt 0.166667 0.500000 0.0
vt 0.833333 0.500000 0.0
vt 0.520636 1.000000 0.0
vt 0.519076 0.500123 0.0
vt 0.552973 0.500021 0.0
vt 0.554532 0.999898 0.0
vt 0.867111 1.000000 0.0
vt 0.865551 0.500123 0.0
vt 0.899447 0.500021 0.0
vt 0.901007 0.999897 0.0
vt 0.305490 0.000000 0.0
vt 0.307050 0.499876 0.0
vt 0.259114 0.500021 0.0
vt 0.257554 0.000145 0.0
vt 0.752518 0.000145 0.0
vt 0.750958 0.500021 0.0
vt 0.703022 0.499877 0.0
vt 0.704582 0.000000 0.0
vt 0.308610 1.000000 0.0
vt 0.307050 0.500123 0.0
vt 0.340946 0.500021 0.0
vt 0.342506 0.999898 0.0
vt 0.273154 1.000000 0.0
vt 0.271594 0.500123 0.0
vt 0.305490 0.500021 0.0
vt 0.307050 0.999897 0.0
vt 0.033896 0.000102 0.0
vt 0.035456 0.499979 0.0
vt 0.001560 0.500081 0.0
vt 0.000000 0.000204 0.0
vt 0.655085 0.500021 0.0
vt 0.653525 0.000145 0.0
vt 0.701462 0.000000 0.0
vt 0.703022 0.499876 0.0
vt 0.849951 0.000000 0.0
vt 0.851511 0.499877 0.0
vt 0.803574 0.500021 0.0
vt 0.802015 0.000145 0.0
vt 0.455540 0.499876 0.0
vt 0.457099 0.000000 0.0
vt 0.505036 0.000145 0.0
vt 0.503476 0.500021 0.0
vt 0.140265 0.500081 0.0
vt 0.138705 0.000204 0.0
vt 0.172601 0.000102 0.0
vt 0.174161 0.499979 0.0
vt 0.174161 0.499979 0.0
vt 0.172601 0.000102 0.0
vt 0.206497 0.000000 0.0
vt 0.208057 0.499877 0.0
vt 0.506596 0.500021 0.0
vt 0.505036 0.000145 0.0
vt 0.552973 0.000000 0.0
vt 0.554532 0.499876 0.0
vt 1.000000 0.000145 0.0
vt 0.998440 0.500021 0.0
vt 0.950504 0.499876 0.0
vt 0.952063 0.000000 0.0
vt 0.455540 0.000145 0.0
vt 0.453980 0.500021 0.0
vt 0.406043 0.499876 0.0
vt 0.407603 0.000000 0.0
vt 0.070912 0.500081 0.0
vt 0.069352 0.000204 0.0
vt 0.103249 0.000102 0.0
vt 0.104809 0.499979 0.0
vt 0.104809 0.499979 0.0
vt 0.103249 0.000102 0.0
vt 0.137145 0.000000 0.0
vt 0.138705 0.499876 0.0
vt 0.604029 0.000145 0.0
vt 0.602469 0.500021 0.0
vt 0.554532 0.499876 0.0
vt 0.556092 0.000000 0.0
vt 0.356547 0.000145 0.0
vt 0.354987 0.500021 0.0
vt 0.307050 0.499877 0.0
vt 0.308610 0.000000 0.0
vt 0.655085 1.000000 0.0
vt 0.653525 0.500123 0.0
vt 0.687422 0.500021 0.0
vt 0.688981 0.999898 0.0
vt 0.639485 0.500123 0.0
vt 0.637925 1.000000 0.0
vt 0.604029 0.999897 0.0
vt 0.605589 0.500021 0.0
vt 0.901007 0.000145 0.0
vt 0.899447 0.500021 0.0
vt 0.851511 0.499876 0.0
vt 0.853071 0.000000 0.0
vt 0.358107 0.500021 0.0
vt 0.356547 0.000145 0.0
vt 0.404483 0.000000 0.0
vt 0.406043 0.499877 0.0
vt 0.067793 0.000000 0.0
vt 0.069352 0.499876 0.0
vt 0.035456 0.499979 0.0
vt 0.033896 0.000102 0.0
vt 0.653525 0.000145 0.0
vt 0.651965 0.500021 0.0
vt 0.604029 0.499876 0.0
vt 0.605589 0.000000 0.0
vt 0.471140 1.000000 0.0
vt 0.469580 0.500123 0.0
vt 0.503476 0.500021 0.0
vt 0.505036 0.999898 0.0
vt 0.453980 0.500021 0.0
vt 0.455540 0.999897 0.0
vt 0.421643 1.000000 0.0
vt 0.420083 0.500123 0.0
vt 0.257554 0.000145 0.0
vt 0.255994 0.500021 0.0
vt 0.208057 0.499877 0.0
vt 0.209617 0.000000 0.0
vt 0.589989 0.500124 0.0
vt 0.588429 1.000000 0.0
vt 0.554532 0.999898 0.0
vt 0.556092 0.500021 0.0
vt 0.952063 1.000000 0.0
vt 0.950504 0.500123 0.0
vt 0.984400 0.500021 0.0
vt 0.985960 0.999898 0.0
vt 0.950504 0.000145 0.0
vt 0.948944 0.500021 0.0
vt 0.901007 0.499877 0.0
vt 0.902567 0.000000 0.0
vt 0.754078 0.500021 0.0
vt 0.752518 0.000145 0.0
vt 0.800455 0.000000 0.0
vt 0.802015 0.499876 0.0
vt 1.166667 0.750000 0.0
vt 1.500000 -0.250000 0.0
vt -0.500000 -0.250000 0.0
vt -0.166666 0.750000 0.0
vt 1.086412 -0.041938 0.0
vt 1.082092 1.179608 0.0
vt -0.138021 1.213336 0.0
vt -0.133700 -0.008210 0.0
vt -0.185199 -0.213415 0.0
vt -0.189519 1.008132 0.0
vt 1.047760 1.042804 0.0
vt 1.052080 -0.178742 0.0
vt 1.166667 1.500000 0.0
vt 1.166667 -0.500000 0.0
vt -0.166666 -0.500000 0.0
vt -0.166666 1.500000 0.0
vt 0.500000 0.500000 0.0
vt 0.146447 0.146447 0.0
vt 0.000000 0.500000 0.0
vt 0.500000 0.500000 0.0
vt 0.500000 0.000000 0.0
vt 0.146447 0.146447 0.0
vt 0.500000 0.500000 0.0
vt 0.853553 0.146447 0.0
vt 0.500000 0.000000 0.0
vt 0.500000 0.500000 0.0
vt 1.000000 0.500000 0.0
vt 0.853553 0.146447 0.0
vt 0.500000 0.500000 0.0
vt 0.146447 0.853553 0.0
vt 0.000000 0.500000 0.0
vt 0.500000 0.500000 0.0
vt 0.000000 0.500000 0.0
vt 0.146447 0.146447 0.0
vt 0.500000 0.500000 0.0
vt 0.146447 0.146447 0.0
vt 0.500000 0.000000 0.0
vt 0.500000 0.500000 0.0
vt 0.500000 0.000000 0.0
vt 0.853553 0.146447 0.0
vt 0.500000 0.500000 0.0
vt 0.853553 0.146447 0.0
vt 1.000000 0.500000 0.0
vt 0.500000 0.500000 0.0
vt 1.000000 0.500000 0.0
vt 0.853554 0.853553 0.0
vt 0.500000 0.500000 0.0
vt 0.853554 0.853553 0.0
vt 0.500000 1.000000 0.0
vt 0.500000 0.500000 0.0
vt 0.500000 1.000000 0.0
vt 0.146447 0.853553 0.0
vt 0.500000 0.500000 0.0
vt 0.000000 0.500000 0.0
vt 0.146447 0.853553 0.0
vt 0.500000 0.500000 0.0
vt 0.853554 0.853553 0.0
vt 1.000000 0.500000 0.0
vt 0.500000 0.500000 0.0
vt 0.500000 1.000000 0.0
vt 0.853554 0.853553 0.0
vt 0.500000 0.500000 0.0
vt 0.146447 0.853553 0.0
vt 0.500000 1.000000 0.0
vt 0.995339 0.907257 0.0
vt 0.858097 0.971241 0.0
vt 0.860484 0.824673 0.0
vt 0.334393 0.072271 0.0
vt 0.439075 0.000000 0.0
vt 0.484045 0.124616 0.0
vt 0.860484 0.824673 0.0
vt 0.995442 0.758735 0.0
vt 0.995339 0.907257 0.0
vt 0.484045 0.124616 0.0
vt 0.362332 0.224790 0.0
vt 0.334393 0.072271 0.0
vt 0.995442 0.758735 0.0
vt 0.860484 0.824673 0.0
vt 0.858266 0.730926 0.0
vt 0.858097 0.971241 0.0
vt 0.995339 0.907257 0.0
vt 0.991580 0.995887 0.0
vt 0.439075 0.000000 0.0
vt 0.334393 0.072271 0.0
vt 0.289571 0.023156 0.0
vt 0.334393 0.072271 0.0
vt 0.242141 0.162083 0.0
vt 0.289571 0.023156 0.0
vt 0.997613 0.093747 0.0
vt 0.862655 0.027809 0.0
vt 0.999830 0.000000 0.0
vt 0.242379 0.371397 0.0
vt 0.364092 0.471571 0.0
vt 0.242141 0.493562 0.0
vt 0.242141 0.162083 0.0
vt 0.334393 0.072271 0.0
vt 0.362332 0.224790 0.0
vt 0.862655 0.027809 0.0
vt 0.997613 0.093747 0.0
vt 0.862758 0.176332 0.0
vt 0.364092 0.471571 0.0
vt 0.242379 0.371397 0.0
vt 0.392032 0.319052 0.0
vt 1.000000 0.240316 0.0
vt 0.862758 0.176332 0.0
vt 0.997613 0.093747 0.0
vt 0.287349 0.246781 0.0
vt 0.392032 0.319052 0.0
vt 0.242379 0.371397 0.0
vt 0.392032 0.319052 0.0
vt 0.484283 0.408865 0.0
vt 0.364092 0.471571 0.0
vt 0.362332 0.224790 0.0
vt 0.484045 0.124616 0.0
vt 0.484283 0.246781 0.0
vt 0.862758 0.176332 0.0
vt 1.000000 0.240316 0.0
vt 0.866517 0.264962 0.0
vt 0.392032 0.319052 0.0
vt 0.436853 0.269937 0.0
vt 0.484283 0.408865 0.0
vt 0.392032 0.319052 0.0
vt 0.287349 0.246781 0.0
vt 0.436853 0.269937 0.0
vt 0.149890 0.319052 0.0
vt 0.242141 0.408865 0.0
vt 0.121951 0.471571 0.0
vt 0.045208 0.246781 0.0
vt 0.149890 0.319052 0.0
vt 0.000238 0.371397 0.0
vt 0.121951 0.471571 0.0
vt 0.000238 0.371397 0.0
vt 0.149890 0.319052 0.0
vt 0.720752 0.758735 0.0
vt 0.855709 0.824673 0.0
vt 0.720855 0.907257 0.0
vt 0.000000 0.162083 0.0
vt 0.092251 0.072271 0.0
vt 0.120191 0.224790 0.0
vt 0.862552 0.176332 0.0
vt 0.725310 0.240316 0.0
vt 0.727697 0.093747 0.0
vt 0.000238 0.371397 0.0
vt 0.121951 0.471571 0.0
vt 0.000000 0.493562 0.0
vt 0.855709 0.824673 0.0
vt 0.720752 0.758735 0.0
vt 0.857927 0.730926 0.0
vt 0.092251 0.072271 0.0
vt 0.000000 0.162083 0.0
vt 0.047430 0.023156 0.0
vt 0.196934 0.000000 0.0
vt 0.092251 0.072271 0.0
vt 0.047430 0.023156 0.0
vt 0.725310 0.240316 0.0
vt 0.862552 0.176332 0.0
vt 0.858793 0.264962 0.0
vt 0.120191 0.224790 0.0
vt 0.241904 0.124616 0.0
vt 0.242141 0.246781 0.0
vt 0.862655 0.027809 0.0
vt 0.727697 0.093747 0.0
vt 0.725480 0.000000 0.0
vt 0.241904 0.124616 0.0
vt 0.120191 0.224790 0.0
vt 0.092251 0.072271 0.0
vt 0.727697 0.093747 0.0
vt 0.862655 0.027809 0.0
vt 0.862552 0.176332 0.0
vt 0.092251 0.072271 0.0
vt 0.196934 0.000000 0.0
vt 0.241904 0.124616 0.0
vt 0.149890 0.319052 0.0
vt 0.045208 0.246781 0.0
vt 0.194712 0.269937 0.0
vt 0.149890 0.319052 0.0
vt 0.194712 0.269937 0.0
vt 0.242141 0.408865 0.0
vt 0.720855 0.907257 0.0
vt 0.858097 0.971241 0.0
vt 0.724613 0.995887 0.0
vt 0.858097 0.971241 0.0
vt 0.720855 0.907257 0.0
vt 0.855709 0.824673 0.0
vt 0.876972 0.648766 0.0
vt 0.958224 0.588356 0.0
vt 0.896365 0.730926 0.0
vt 0.876972 0.648766 0.0
vt 0.755443 0.730872 0.0
vt 0.730206 0.588269 0.0
vt 0.151826 0.563754 0.0
vt 0.242141 0.641448 0.0
vt 0.133679 0.717025 0.0
vt 0.035032 0.493562 0.0
vt 0.151826 0.563754 0.0
vt 0.005679 0.625627 0.0
vt 0.730206 0.588269 0.0
vt 0.855532 0.500189 0.0
vt 0.876972 0.648766 0.0
vt 0.133679 0.717025 0.0
vt 0.005679 0.625627 0.0
vt 0.151826 0.563754 0.0
vt 0.855532 0.500189 0.0
vt 0.730206 0.588269 0.0
vt 0.720752 0.490470 0.0
vt 0.005679 0.625627 0.0
vt 0.133679 0.717025 0.0
vt 0.005673 0.741562 0.0
vt 0.474828 0.591361 0.0
vt 0.349502 0.503281 0.0
vt 0.484283 0.493562 0.0
vt 0.592745 0.713933 0.0
vt 0.720745 0.622535 0.0
vt 0.720752 0.738470 0.0
vt 0.755443 0.730872 0.0
vt 0.876972 0.648766 0.0
vt 0.896365 0.730926 0.0
vt 0.151826 0.563754 0.0
vt 0.035032 0.493562 0.0
vt 0.181174 0.503341 0.0
vt 0.349502 0.503281 0.0
vt 0.474828 0.591361 0.0
vt 0.328062 0.651858 0.0
vt 0.720745 0.622535 0.0
vt 0.592745 0.713933 0.0
vt 0.574598 0.560662 0.0
vt 0.484283 0.638356 0.0
vt 0.574598 0.560662 0.0
vt 0.592745 0.713933 0.0
vt 0.574598 0.560662 0.0
vt 0.691392 0.490470 0.0
vt 0.720745 0.622535 0.0
vt 0.449591 0.733964 0.0
vt 0.328062 0.651858 0.0
vt 0.474828 0.591361 0.0
vt 0.246811 0.591448 0.0
vt 0.328062 0.651858 0.0
vt 0.308670 0.734018 0.0
vt 0.691392 0.490470 0.0
vt 0.574598 0.560662 0.0
vt 0.545250 0.500249 0.0
vt 0.449591 0.733964 0.0
vt 0.308670 0.734018 0.0
vt 0.328062 0.651858 0.0
vt 0.619994 0.753121 0.0
vt 0.484580 0.812500 0.0
vt 0.484283 0.738470 0.0
vt 0.484322 0.108933 0.0
vt 0.484283 0.000000 0.0
vt 0.607642 0.011480 0.0
vt 0.484283 0.332787 0.0
vt 0.576308 0.408869 0.0
vt 0.534882 0.476300 0.0
vt 0.576308 0.408869 0.0
vt 0.683821 0.490470 0.0
vt 0.534882 0.476300 0.0
vt 0.348259 0.888723 0.0
vt 0.483775 0.960628 0.0
vt 0.348230 0.995548 0.0
vt 0.484322 0.108933 0.0
vt 0.607642 0.011480 0.0
vt 0.633285 0.162088 0.0
vt 0.484580 0.812500 0.0
vt 0.619994 0.753121 0.0
vt 0.620307 0.893174 0.0
vt 0.576308 0.408869 0.0
vt 0.484283 0.332787 0.0
vt 0.601951 0.258261 0.0
vt 0.683821 0.490470 0.0
vt 0.576308 0.408869 0.0
vt 0.725271 0.355714 0.0
vt 0.483775 0.960628 0.0
vt 0.348259 0.888723 0.0
vt 0.483986 0.808048 0.0
vt 0.633285 0.162088 0.0
vt 0.525772 0.243689 0.0
vt 0.484322 0.108933 0.0
vt 0.620307 0.893174 0.0
vt 0.484791 0.965080 0.0
vt 0.484580 0.812500 0.0
vt 0.601951 0.258261 0.0
vt 0.725271 0.355714 0.0
vt 0.576308 0.408869 0.0
vt 0.348572 0.748669 0.0
vt 0.483986 0.808048 0.0
vt 0.348259 0.888723 0.0
vt 0.725310 0.086005 0.0
vt 0.633285 0.162088 0.0
vt 0.607642 0.011480 0.0
vt 0.525772 0.243689 0.0
vt 0.633285 0.162088 0.0
vt 0.674711 0.229519 0.0
vt 0.484791 0.965080 0.0
vt 0.620307 0.893174 0.0
vt 0.620336 1.000000 0.0
vt 0.725271 0.355714 0.0
vt 0.601951 0.258261 0.0
vt 0.725310 0.246781 0.0
vt 0.483986 0.808048 0.0
vt 0.348572 0.748669 0.0
vt 0.484283 0.734018 0.0
vt 0.633285 0.162088 0.0
vt 0.725310 0.086005 0.0
vt 0.674711 0.229519 0.0
vn 0.000000 0.000000 1.000000
vn -0.000000 -1.000000 -0.000000
vn 0.000000 0.316228 0.948683
vn -1.000000 0.000000 -0.000000
vn 1.000000 -0.000000 0.000000
vn -0.000000 -0.894427 -0.447214
vn 0.707106 -0.000000 -0.707107
vn -0.707107 -0.000000 -0.707107
vn -0.000000 -0.000000 -1.000000
vn -0.707107 -0.000000 -0.707106
vn -0.707107 0.000000 0.707107
vn 0.707107 -0.000000 -0.707107
vn -1.000000 -0.000000 0.000001
vn -0.000001 -0.000000 -1.000000
vn -0.707083 0.000000 0.707083
vn 0.707083 0.000000 0.707083
vn -0.707083 0.000000 -0.707083
vn 0.970143 0.242535 0.000000
vn -0.970142 0.242536 -0.000000
vn 0.000000 1.000000 0.000000
vn -0.439733 0.879465 -0.182143
vn -0.182143 0.879465 -0.439733
vn 0.182143 0.879465 -0.439733
vn 0.439733 0.879465 -0.182143
vn -0.000001 -1.000000 0.000000
vn -0.999969 -0.004089 0.000000
vn -0.707083 -0.004089 0.707083
vn 0.707083 0.002472 0.707083
vn 0.999969 0.002472 0.000000
vn 0.000000 0.002472 0.999969
vn 0.276376 -0.447188 0.850642
vn 0.894406 -0.447188 0.000000
vn 0.723594 0.447188 0.525712
vn -0.723594 -0.447188 0.525712
vn -0.276376 0.447188 0.850642
vn -0.894406 0.447188 0.000000
vn -0.723594 -0.447188 -0.525712
vn 0.276376 -0.447188 -0.850642
vn -0.276376 0.447188 -0.850642
vn 0.723594 0.447188 -0.525712
vn 0.342967 -0.447188 0.826044
vn -0.679617 -0.447188 0.581469
vn 0.891598 -0.447188 -0.070925
vn 0.763024 0.447188 0.466659
vn -0.208045 0.447188 0.869869
vn -0.763024 -0.447188 -0.466659
vn -0.891598 0.447188 0.070925
vn 0.208045 -0.447188 -0.869869
vn -0.342967 0.447188 -0.826044
vn 0.679617 0.447188 -0.581469
vn 0.828700 0.447188 0.336497
vn 0.576098 0.447188 -0.684133
vn -0.063936 0.447188 0.892117
vn -0.472640 0.447188 -0.759331
vn -0.868221 0.447188 0.214850
vn 0.472640 -0.447188 0.759331
vn 0.868221 -0.447188 -0.214850
vn 0.063936 -0.447188 -0.892117
vn -0.828700 -0.447188 -0.336497
vn -0.576098 -0.447188 0.684133
usemtl Material_boiler_plate.jpg
s 1
f 63/1/1 131/2/1 132/3/1 64/4/1
f 60/5/2 64/6/2 132/7/2 133/8/2
f 65/9/1 134/10/1 135/11/1 66/12/1
f 63/13/1 66/14/1 135/15/1 131/16/1
f 65/17/2 61/18/2 136/19/2 134/20/2
f 61/21/2 60/22/2 133/23/2 136/24/2
f 133/25/3 138/26/3 137/27/3 136/28/3
f 131/29/4 138/30/4 133/31/4 132/32/4
f 134/33/5 136/34/5 137/35/5 135/36/5
f 131/37/6 135/38/6 137/39/6 138/40/6
usemtl Material_caststeel.jpg
f 67/41/7 68/42/7 69/43/7 70/44/7
f 70/45/8 69/46/8 71/47/8 72/48/8
f 75/49/5 76/50/5 77/51/5 78/52/5
f 78/53/9 77/54/9 82/55/9 81/56/9
f 83/57/10 84/58/10 85/59/10 86/60/10
f 86/61/11 85/62/11 87/63/11 88/64/11
f 90/65/12 89/66/12 84/67/12 83/68/12
f 91/69/9 92/70/9 93/71/9 94/72/9
f 95/73/5 96/74/5 92/75/5 91/76/5
f 94/77/13 93/78/13 98/79/13 97/80/13
f 104/81/12 103/82/12 105/83/12 106/84/12
f 106/85/8 105/86/8 100/87/8 99/88/8
f 107/89/4 108/90/4 109/91/4 110/92/4
f 111/93/9 112/94/9 108/95/9 107/96/9
f 113/97/5 114/98/5 112/99/5 111/100/5
f 118/101/12 117/102/12 119/103/12 120/104/12
f 120/105/8 119/106/8 121/107/8 122/108/8
f 129/109/14 130/110/14 128/111/14 127/112/14
f 126/113/5 125/114/5 130/115/5 129/116/5
s 1
f 72/117/4 71/118/4 73/119/1 74/120/1
s 1
f 74/121/1 73/122/1 68/123/5 67/124/5
s 1
f 79/125/15 80/126/15 76/127/16 75/128/16
s 1
f 81/129/17 82/130/17 80/131/15 79/132/15
s 1
f 88/133/1 87/134/1 89/135/5 90/136/5
s 1
f 97/137/15 98/138/15 96/139/16 95/140/16
s 1
f 99/141/4 100/142/4 101/143/1 102/144/1
s 1
f 102/145/1 101/146/1 103/147/5 104/148/5
s 1
f 110/149/15 109/150/15 114/151/16 113/152/16
s 1
f 115/153/1 116/154/1 117/155/5 118/156/5
s 1
f 122/157/4 121/158/4 116/159/1 115/160/1
s 1
f 123/161/15 124/162/15 125/163/16 126/164/16
s 1
f 127/165/17 128/166/17 124/167/15 123/168/15
usemtl Material_boiler_plate.jpg
f 59/169/9 60/170/9 61/171/9 62/172/9
f 59/173/18 63/174/18 64/175/18 60/176/18
f 61/177/19 65/178/19 66/179/19 62/180/19
f 63/181/20 59/182/20 62/183/20 66/184/20
usemtl Material_caststeel.jpg
f 1/185/21 4/186/21 2/187/21
f 1/188/22 5/189/22 4/190/22
f 1/191/23 6/192/23 5/193/23
f 1/194/24 7/195/24 6/196/24
f 10/197/2 3/198/2 2/199/2
f 10/200/2 2/201/2 4/202/2
f 10/203/2 4/204/2 5/205/2
f 10/206/2 5/207/2 6/208/2
f 10/209/2 6/210/2 7/211/2
f 10/212/2 7/213/2 8/214/2
f 10/215/25 8/216/25 9/217/25
f 10/218/2 9/219/2 3/220/2
s 1
f 1/221/20 2/222/26 3/223/27
s 1
f 1/224/20 8/225/28 7/226/29
s 1
f 1/227/20 9/228/30 8/229/28
s 1
f 1/230/20 3/231/27 9/232/30
usemtl Material.001_caststeel.jpg
s 1
f 24/233/31 23/234/32 29/235/33
s 1
f 26/236/34 24/237/31 30/238/35
s 1
f 29/239/33 30/240/35 24/241/31
s 1
f 30/242/35 31/243/36 26/244/34
s 1
f 30/245/35 29/246/33 34/247/20
usemtl Material.001_boiler_plate.jpg
s 1
f 23/248/32 24/249/31 25/250/2
s 1
f 24/251/31 26/252/34 25/253/2
s 1
f 26/254/34 27/255/37 25/256/2
s 1
f 27/257/37 28/258/38 25/259/2
s 1
f 28/260/38 23/261/32 25/262/2
s 1
f 27/263/37 26/264/34 31/265/36
s 1
f 28/266/38 27/267/37 32/268/39
s 1
f 23/269/32 28/270/38 33/271/40
s 1
f 31/272/36 32/273/39 27/274/37
s 1
f 32/275/39 33/276/40 28/277/38
s 1
f 33/278/40 29/279/33 23/280/32
s 1
f 31/281/36 30/282/35 34/283/20
s 1
f 32/284/39 31/285/36 34/286/20
s 1
f 33/287/40 34/288/20 29/289/33
s 1
f 33/290/40 32/291/39 34/292/20
usemtl Material.002_boiler_plate.jpg
s 1
f 11/293/40 14/294/33 17/295/32
s 1
f 12/296/39 11/297/40 18/298/38
s 1
f 17/299/32 18/300/38 11/301/40
s 1
f 18/302/38 19/303/37 12/304/39
s 1
f 19/305/37 20/306/34 15/307/36
s 1
f 21/308/31 17/309/32 14/310/33
s 1
f 18/311/38 17/312/32 22/313/2
s 1
f 19/314/37 18/315/38 22/316/2
s 1
f 20/317/34 19/318/37 22/319/2
s 1
f 21/320/31 20/321/34 22/322/2
s 1
f 17/323/32 21/324/31 22/325/2
usemtl Material.002_caststeel.jpg
s 1
f 15/326/36 16/327/35 13/328/20
s 1
f 16/329/35 14/330/33 13/331/20
s 1
f 16/332/35 15/333/36 20/334/34
s 1
f 14/335/33 16/336/35 21/337/31
s 1
f 20/338/34 21/339/31 16/340/35
usemtl Material.002_boiler_plate.jpg
s 1
f 11/341/40 12/342/39 13/343/20
s 1
f 11/344/40 13/345/20 14/346/33
s 1
f 12/347/39 15/348/36 13/349/20
s 1
f 15/350/36 12/351/39 19/352/37
usemtl Material.003_caststeel.jpg
s 1
f 51/353/41 52/354/42 49/355/2
s 1
f 51/356/41 50/357/43 55/358/44
s 1
f 52/359/42 51/360/41 56/361/45
s 1
f 47/362/46 52/363/42 57/364/47
s 1
f 55/365/44 56/366/45 51/367/41
s 1
f 56/368/45 57/369/47 52/370/42
s 1
f 56/371/45 55/372/44 58/373/20
s 1
f 57/374/47 56/375/45 58/376/20
usemtl Material.003_boiler_plate.jpg
s 1
f 47/377/46 48/378/48 49/379/2
s 1
f 48/380/48 50/381/43 49/382/2
s 1
f 50/383/43 51/384/41 49/385/2
s 1
f 52/386/42 47/387/46 49/388/2
s 1
f 48/389/48 47/390/46 53/391/49
s 1
f 50/392/43 48/393/48 54/394/50
s 1
f 53/395/49 54/396/50 48/397/48
s 1
f 54/398/50 55/399/44 50/400/43
s 1
f 57/401/47 53/402/49 47/403/46
s 1
f 54/404/50 53/405/49 58/406/20
s 1
f 55/407/44 54/408/50 58/409/20
s 1
f 57/410/47 58/411/20 53/412/49
usemtl Material.004_caststeel.jpg
s 1
f 35/413/51 36/414/52 37/415/20
s 1
f 35/416/51 37/417/20 38/418/53
s 1
f 36/419/52 39/420/54 37/421/20
s 1
f 39/422/54 40/423/55 37/424/20
s 1
f 40/425/55 38/426/53 37/427/20
s 1
f 35/428/51 38/429/53 41/430/56
s 1
f 36/431/52 35/432/51 42/433/57
s 1
f 39/434/54 36/435/52 43/436/58
s 1
f 40/437/55 39/438/54 44/439/59
s 1
f 38/440/53 40/441/55 45/442/60
s 1
f 41/443/56 42/444/57 35/445/51
s 1
f 42/446/57 43/447/58 36/448/52
s 1
f 43/449/58 44/450/59 39/451/54
s 1
f 44/452/59 45/453/60 40/454/55
s 1
f 45/455/60 41/456/56 38/457/53
s 1
f 42/458/57 41/459/56 46/460/2
s 1
f 43/461/58 42/462/57 46/463/2
s 1
f 44/464/59 43/465/58 46/466/2
s 1
f 45/467/60 44/468/59 46/469/2
s 1
f 41/470/56 45/471/60 46/472/2
