# Blender3D v244 OBJ File: rubber-factory.blend
# www.blender3d.org
mtllib rubber-factory.mtl
o Cube
v 1.500000 0.500000 -2.625000
v 1.500000 -0.500000 -2.625000
v -1.500000 -0.500000 -2.625000
v -1.499999 0.500000 -2.625000
v 1.500001 0.500000 -0.375000
v 1.499999 -0.500000 -0.375000
v -1.500000 -0.500000 -0.375000
v -1.500000 0.500000 -0.375000
v 0.088124 3.301354 -1.523967
v -0.098228 3.184992 -1.670669
v -0.212810 3.092160 -1.451485
v -0.026458 3.208522 -1.304783
v 0.438265 0.399510 -1.499475
v -0.000000 0.399510 -1.937740
v -0.438265 0.399510 -1.499475
v 0.000000 0.399510 -1.061211
v 0.405179 1.967468 -1.728920
v 0.662827 2.026272 -1.554699
v 0.233526 1.936858 -1.464740
v 0.491174 1.995661 -1.290519
v 0.320239 2.538070 -1.711150
v 0.343604 1.005592 -1.749475
v 0.506591 2.654432 -1.564449
v 0.585557 0.942674 -1.499475
v 0.101651 1.068509 -1.499475
v 0.205657 2.445239 -1.491966
v 0.343604 1.005592 -1.249475
v 0.392009 2.561600 -1.345265
v 0.485497 3.615378 -1.203250
v -0.050799 3.203513 -1.260001
v -0.142888 3.173322 -1.729475
v 0.322505 3.561941 -2.034190
v 1.338396 3.589960 -1.962564
v 1.394308 3.608290 -1.677527
v 0.479910 3.130258 -0.091783
v 0.692981 3.268019 -0.234371
v 0.499418 3.642456 -1.092875
v 0.129807 3.331155 -1.569264
v -0.221133 3.104255 -1.334413
v -0.121725 3.240857 -0.677203
v -0.747370 2.882611 -1.192895
v -0.215063 3.113360 -1.544848
v 0.086486 3.296295 -1.220194
v -0.213647 3.206394 -0.618276
v -0.615831 2.551014 -0.174621
v -0.798914 2.439947 -0.371732
v -1.191895 2.571597 -2.082638
v -1.295702 2.513035 -1.817114
v -0.726427 3.067448 -1.179537
v -0.054380 3.126045 -1.106156
v 0.116598 3.222499 -1.543490
v -0.423808 3.238167 -1.953591
v 0.120840 3.559507 -1.904327
v 0.090749 3.170584 -1.497917
v -0.268845 3.003972 -1.533971
v -0.515621 3.264614 -1.968141
v -0.258034 3.409701 -2.760553
v -0.039709 3.510858 -2.738663
v 1.031029 1.159604 -0.726729
v -1.031028 1.159604 -0.726729
v -1.031028 1.159604 -2.273271
v 1.031028 1.159604 -2.273271
v -0.746970 0.565960 -2.060228
v 0.746971 0.565960 -2.060228
v 0.746971 0.565960 -0.939772
v -0.746970 0.565960 -0.939772
v 0.072062 1.576468 -1.120108
v 0.075021 1.980016 -1.114077
v 0.439753 1.979924 -1.286897
v 0.436793 1.576376 -1.292928
v -0.100733 1.583185 -1.484790
v -0.097774 1.986733 -1.478759
v 0.266958 1.986641 -1.651579
v 0.263999 1.583094 -1.657610
v -1.256277 0.790894 -1.120625
v -1.156342 0.866205 -1.054736
v -1.209895 0.827796 -0.929609
v -1.309830 0.752486 -0.995497
v 0.030066 1.779358 -1.439889
v 0.069924 1.679358 -1.348176
v 0.109781 1.779358 -1.256462
v 0.069924 1.879358 -1.348176
v -1.123855 1.622504 -1.063873
v -1.241665 1.678504 -1.118506
v -1.169786 1.652942 -0.933628
v -1.287596 1.708942 -0.988261
v -0.722571 1.792780 -1.006534
v -1.216762 1.310438 -1.090237
v -1.339136 1.284299 -1.156126
v -0.762428 1.892780 -1.098247
v -0.682713 1.892780 -0.914820
v -1.281517 1.298196 -0.965110
v -0.722571 1.992780 -1.006534
v -1.403892 1.272058 -1.030998
v -1.000420 0.554797 -1.243054
v -1.000420 1.118815 -1.243054
v -1.421622 1.118815 -1.243054
v -1.421622 0.554797 -1.243054
v -1.000420 0.554797 -0.821852
v -1.000420 1.118815 -0.821852
v -1.421622 1.118815 -0.821852
v -1.421622 0.554797 -0.821852
vt 0.542246 0.457599 0.0
vt 0.542342 0.542235 0.0
vt 0.457717 0.542332 0.0
vt 0.457621 0.457695 0.0
vt 0.542439 0.457599 0.0
vt 0.627064 0.457695 0.0
vt 0.626968 0.542332 0.0
vt 0.542342 0.542235 0.0
vt 0.627069 0.542433 0.0
vt 0.626968 0.627069 0.0
vt 0.542342 0.626968 0.0
vt 0.542444 0.542332 0.0
vt 0.372995 0.542332 0.0
vt 0.372931 0.457695 0.0
vt 0.457556 0.457631 0.0
vt 0.457621 0.542267 0.0
vt 0.457615 0.542433 0.0
vt 0.542241 0.542332 0.0
vt 0.542342 0.626968 0.0
vt 0.457717 0.627069 0.0
vt 0.372995 0.372931 0.0
vt 0.457621 0.372995 0.0
vt 0.457556 0.457631 0.0
vt 0.372931 0.457567 0.0
vt 0.000000 1.000000 0.0
vt 1.000000 1.000000 0.0
vt 1.000000 0.000000 0.0
vt 0.000000 0.000000 0.0
vt 0.000000 1.000000 0.0
vt 1.000000 1.000000 0.0
vt 1.000000 0.000000 0.0
vt 0.000000 0.000000 0.0
vt 0.000000 1.000000 0.0
vt 1.000000 1.000000 0.0
vt 1.000000 0.000000 0.0
vt 0.000000 0.000000 0.0
vt 0.000000 1.000000 0.0
vt 1.000000 1.000000 0.0
vt 1.000000 0.000000 0.0
vt 0.000000 0.000000 0.0
vt 0.000000 1.000000 0.0
vt 1.000000 1.000000 0.0
vt 1.000000 0.000000 0.0
vt 0.000000 0.000000 0.0
vt 0.000000 1.000000 0.0
vt 1.000000 1.000000 0.0
vt 1.000000 0.000000 0.0
vt 0.000000 0.000000 0.0
vt 0.000000 1.000000 0.0
vt 0.000000 0.000000 0.0
vt 1.000000 0.000000 0.0
vt 1.000000 1.000000 0.0
vt 0.308357 0.000000 0.0
vt 0.304424 0.998997 0.0
vt 0.000000 0.842101 0.0
vt 0.002703 0.155438 0.0
vt 0.429623 1.000000 0.0
vt 0.432588 0.001362 0.0
vt 0.715506 0.158371 0.0
vt 0.713467 0.844787 0.0
vt 0.432588 0.998638 0.0
vt 0.429623 0.000000 0.0
vt 0.713467 0.155213 0.0
vt 0.715506 0.841629 0.0
vt 0.568646 0.307610 0.0
vt 0.518626 0.399606 0.0
vt 0.388959 0.390151 0.0
vt 0.477491 0.227324 0.0
vt 0.477491 0.227324 0.0
vt 0.388959 0.390151 0.0
vt 0.286640 0.277743 0.0
vt 0.317009 0.221889 0.0
vt 0.682278 0.407942 0.0
vt 0.595146 0.570583 0.0
vt 0.478120 0.467422 0.0
vt 0.508009 0.411631 0.0
vt 0.773131 0.488172 0.0
vt 0.723903 0.580063 0.0
vt 0.595146 0.570583 0.0
vt 0.682278 0.407942 0.0
vt 0.750395 0.122728 0.0
vt 0.835187 0.061339 0.0
vt 0.924028 0.139447 0.0
vt 0.773951 0.248103 0.0
vt 0.773951 0.248103 0.0
vt 0.924028 0.139447 0.0
vt 0.956682 0.316424 0.0
vt 0.905201 0.353697 0.0
vt 0.673213 0.399938 0.0
vt 0.763275 0.238677 0.0
vt 0.895331 0.365580 0.0
vt 0.864437 0.420898 0.0
vt 0.595747 0.331424 0.0
vt 0.646630 0.240313 0.0
vt 0.763275 0.238677 0.0
vt 0.673213 0.399938 0.0
vt 0.667567 0.216525 0.0
vt 0.610589 0.281133 0.0
vt 0.519498 0.264216 0.0
vt 0.620346 0.149864 0.0
vt 0.620346 0.149864 0.0
vt 0.519498 0.264216 0.0
vt 0.445438 0.127429 0.0
vt 0.480032 0.088203 0.0
vt 0.095565 0.000000 0.0
vt 0.200867 0.254185 0.0
vt 0.105803 0.289845 0.0
vt 0.000501 0.035659 0.0
vt 0.200867 0.254185 0.0
vt 0.251702 0.545839 0.0
vt 0.129698 0.557645 0.0
vt 0.105803 0.289845 0.0
vt 0.251702 0.545839 0.0
vt 0.243409 0.812345 0.0
vt 0.121964 0.796586 0.0
vt 0.129698 0.557645 0.0
vt 0.243409 0.812345 0.0
vt 0.214790 0.991309 0.0
vt 0.000000 1.000000 0.0
vt 0.121964 0.796586 0.0
vt 0.656610 0.966121 0.0
vt 0.549455 0.726717 0.0
vt 0.644241 0.691486 0.0
vt 0.751396 0.930891 0.0
vt 0.549455 0.726717 0.0
vt 0.503402 0.463718 0.0
vt 0.625309 0.451297 0.0
vt 0.644241 0.691486 0.0
vt 0.503402 0.463718 0.0
vt 0.509139 0.223508 0.0
vt 0.630717 0.238752 0.0
vt 0.625309 0.451297 0.0
vt 0.509139 0.223508 0.0
vt 0.538089 0.009890 0.0
vt 0.752807 0.000000 0.0
vt 0.630717 0.238752 0.0
vt 0.754142 0.916611 0.0
vt 0.859457 0.693797 0.0
vt 0.954378 0.727748 0.0
vt 0.849063 0.950562 0.0
vt 0.859457 0.693797 0.0
vt 0.878074 0.459610 0.0
vt 1.000000 0.471963 0.0
vt 0.954378 0.727748 0.0
vt 0.878074 0.459610 0.0
vt 0.872772 0.249714 0.0
vt 0.994375 0.234792 0.0
vt 1.000000 0.471963 0.0
vt 0.872772 0.249714 0.0
vt 0.752807 0.000000 0.0
vt 0.967541 0.010076 0.0
vt 0.994375 0.234792 0.0
vt 0.502903 0.035659 0.0
vt 0.397601 0.289845 0.0
vt 0.302537 0.254185 0.0
vt 0.407839 0.000000 0.0
vt 0.397601 0.289845 0.0
vt 0.373705 0.557645 0.0
vt 0.251702 0.545839 0.0
vt 0.302537 0.254185 0.0
vt 0.373705 0.557645 0.0
vt 0.381438 0.796586 0.0
vt 0.259993 0.812345 0.0
vt 0.251702 0.545839 0.0
vt 0.381438 0.796586 0.0
vt 0.503402 1.000000 0.0
vt 0.288612 0.991309 0.0
vt 0.259993 0.812345 0.0
vt 0.423714 0.998996 0.0
vt 0.003933 1.000000 0.0
vt 0.000000 0.001003 0.0
vt 0.419781 0.000000 0.0
vt 0.304424 0.998997 0.0
vt 0.308357 0.000000 0.0
vt 0.728138 0.001003 0.0
vt 0.724205 1.000000 0.0
vt 0.429623 0.000000 0.0
vt 0.432588 0.998638 0.0
vt 0.002965 1.000000 0.0
vt 0.000000 0.001362 0.0
vt 0.000000 0.002296 0.0
vt 0.995926 0.000000 0.0
vt 1.000000 0.997704 0.0
vt 0.004074 1.000000 0.0
vt 0.000000 0.998638 0.0
vt 0.002966 0.000000 0.0
vt 0.432588 0.001362 0.0
vt 0.429623 1.000000 0.0
vt 0.423714 0.998996 0.0
vt 0.419781 0.000000 0.0
vt 0.725435 0.155438 0.0
vt 0.728138 0.842100 0.0
vt 0.728138 0.686662 0.0
vt 0.730842 0.000000 0.0
vt 1.000000 0.095235 0.0
vt 0.998041 0.592716 0.0
vt 0.717544 0.686416 0.0
vt 0.715506 0.000000 0.0
vt 0.998523 0.093661 0.0
vt 1.000000 0.590963 0.0
vt 0.715506 0.686416 0.0
vt 0.717544 0.000000 0.0
vt 1.000000 0.095453 0.0
vt 0.998523 0.592755 0.0
vt 0.997297 0.000000 0.0
vt 1.000000 0.686663 0.0
vt 0.730097 0.592716 0.0
vt 0.728138 0.095235 0.0
vt 0.000000 1.000000 0.0
vt 0.250000 1.000000 0.0
vt 0.250000 -0.000001 0.0
vt 0.000000 0.000000 0.0
vt 0.250000 1.000000 0.0
vt 0.500000 1.000000 0.0
vt 0.500000 -0.000001 0.0
vt 0.250000 -0.000001 0.0
vt 0.500000 1.000000 0.0
vt 0.750000 1.000000 0.0
vt 0.750000 -0.000000 0.0
vt 0.500000 -0.000001 0.0
vt 0.750000 1.000000 0.0
vt 1.000000 1.000000 0.0
vt 1.000000 0.000000 0.0
vt 0.750000 -0.000000 0.0
vt 0.000000 1.000000 0.0
vt 0.250000 1.000000 0.0
vt 0.250000 0.000000 0.0
vt 0.000000 0.000000 0.0
vt 0.250000 1.000000 0.0
vt 0.500000 1.000000 0.0
vt 0.500000 0.000000 0.0
vt 0.250000 0.000000 0.0
vt 0.500000 1.000000 0.0
vt 0.750000 1.000000 0.0
vt 0.750000 0.000000 0.0
vt 0.500000 0.000000 0.0
vt 0.750000 1.000000 0.0
vt 1.000000 1.000000 0.0
vt 1.000000 0.000000 0.0
vt 0.750000 0.000000 0.0
vt 0.000000 1.000000 0.0
vt 0.250000 1.000000 0.0
vt 0.250000 0.000000 0.0
vt 0.000000 0.000000 0.0
vt 0.250000 1.000000 0.0
vt 0.500000 1.000000 0.0
vt 0.500000 0.000000 0.0
vt 0.250000 0.000000 0.0
vt 0.500000 1.000000 0.0
vt 0.750000 1.000000 0.0
vt 0.750000 0.000000 0.0
vt 0.500000 0.000000 0.0
vt 0.750000 1.000000 0.0
vt 1.000000 1.000000 0.0
vt 1.000000 0.000000 0.0
vt 0.750000 0.000000 0.0
vt 0.000000 1.000000 0.0
vt 0.250000 1.000000 0.0
vt 0.250000 0.000001 0.0
vt 0.000000 0.000000 0.0
vt 0.250000 1.000000 0.0
vt 0.500000 1.000000 0.0
vt 0.500000 0.000000 0.0
vt 0.250000 0.000001 0.0
vt 0.500000 1.000000 0.0
vt 0.750000 1.000000 0.0
vt 0.750000 -0.000001 0.0
vt 0.500000 0.000000 0.0
vt 0.750000 1.000000 0.0
vt 1.000000 1.000000 0.0
vt 1.000000 0.000000 0.0
vt 0.750000 -0.000001 0.0
vn -0.428130 0.016644 -0.903564
vn 0.428130 -0.016644 0.903564
vn 0.903687 -0.000227 -0.428193
vn -0.007332 -0.999862 -0.014944
vn -0.903687 0.000227 0.428193
vn 0.007332 0.999861 0.014944
vn 0.000000 0.000000 1.000000
vn 0.000000 0.000000 -1.000000
vn -1.000000 -0.000000 0.000000
vn 0.000000 -1.000000 -0.000000
vn 1.000000 0.000000 0.000000
vn -0.000000 1.000000 -0.000000
vn 0.000000 0.470526 0.882386
vn -0.815002 0.579458 -0.000000
vn 0.815002 0.579458 -0.000000
vn -0.612201 0.787622 0.069430
vn -0.335307 0.942076 0.005188
vn -0.023316 0.997925 -0.059572
vn -0.442824 0.877132 0.185705
vn -0.265145 0.860439 0.435072
vn -0.578845 0.811365 -0.081088
vn -0.444990 0.891110 -0.088778
vn -0.598895 0.793298 0.109256
vn -0.709403 0.638020 0.299387
vn -0.395367 0.917264 0.047700
vn -0.644917 0.759514 -0.084597
vn -0.104465 0.978973 0.175054
vn -0.378857 0.682455 0.625050
vn -0.422834 0.838008 0.344798
vn -0.422559 0.905850 0.028474
vn 0.817866 0.541246 -0.195227
vn 0.899289 0.388195 -0.201361
vn -0.230445 -0.033570 -0.972503
vn -0.192083 -0.062960 -0.979339
vn 0.988739 0.074099 -0.129948
vn -0.158696 0.024049 -0.986999
vn 0.985229 -0.166265 -0.040315
vn -0.085879 0.158025 -0.983673
vn 0.967498 -0.252815 0.000000
vn 0.072756 0.234779 -0.969298
vn -0.927213 -0.315195 0.202124
vn -0.817866 -0.541246 0.195227
vn -0.992462 0.034944 0.117313
vn -0.911832 0.408124 0.044465
vn -0.761803 0.647786 0.000000
vn 0.153294 0.092196 0.983856
vn 0.192083 0.062960 0.979339
vn 0.173589 0.088076 0.980865
vn 0.017182 0.154668 0.987793
vn 0.072756 0.234779 0.969298
vn 1.000000 -0.000001 0.000000
vn -1.000000 0.000001 -0.000000
vn 0.000000 0.470526 -0.882386
vn 0.000000 0.337781 0.941225
vn -0.902051 0.431630 0.000000
vn 0.902051 0.431630 0.000000
vn 0.000000 0.337781 -0.941225
vn -0.267647 -0.125278 -0.955321
vn -0.389355 0.022889 -0.920774
vn 0.972961 -0.063021 -0.222114
vn 0.951201 0.119297 -0.284494
vn -0.236274 0.232124 -0.943510
vn 0.739006 -0.624622 -0.252327
vn -0.218940 0.013184 -0.975616
vn 0.131504 -0.970031 -0.204169
vn -0.395886 -0.000183 -0.918271
vn -0.119572 -0.991455 0.051759
vn 0.389843 -0.048006 0.919614
vn 0.274453 0.101718 0.956175
vn 0.221564 -0.238716 0.945463
vn 0.216102 -0.009186 0.976318
vn 0.395886 0.000183 0.918271
vn -0.973205 0.038301 0.226691
vn -0.947844 -0.142033 0.285257
vn -0.748283 0.609363 0.262062
vn -0.135289 0.972747 0.188208
vn 0.119572 0.991455 -0.051759
usemtl Material_caststeel.jpg
s 1
f 69/1/1 70/2/1 67/3/1 68/4/1
f 71/5/2 74/6/2 73/7/2 72/8/2
f 67/9/3 71/10/3 72/11/3 68/12/3
f 68/13/4 72/14/4 73/15/4 69/16/4
f 69/17/5 73/18/5 74/19/5 70/20/5
f 70/21/6 74/22/6 71/23/6 67/24/6
f 97/25/7 98/26/7 95/27/7 96/28/7
f 99/29/8 102/30/8 101/31/8 100/32/8
f 95/33/9 99/34/9 100/35/9 96/36/9
f 96/37/10 100/38/10 101/39/10 97/40/10
f 97/41/11 101/42/11 102/43/11 98/44/11
f 98/45/12 102/46/12 99/47/12 95/48/12
usemtl Material_ground.jpg
f 65/49/12 64/50/12 63/51/12 66/52/12
usemtl Material_boiler_plate.jpg
f 8/53/13 5/54/13 59/55/13 60/56/13
f 4/57/14 8/58/14 60/59/14 61/60/14
f 5/61/15 1/62/15 62/63/15 59/64/15
usemtl Material_greenapple.jpg
s 1
f 31/65/16 30/66/16 29/67/17 32/68/17
s 1
f 32/69/17 29/70/17 34/71/18 33/72/18
s 1
f 37/73/19 40/74/19 35/75/20 36/76/20
s 1
f 38/77/21 39/78/21 40/79/19 37/80/19
s 1
f 43/81/22 42/82/22 41/83/23 44/84/23
s 1
f 44/85/23 41/86/23 46/87/24 45/88/24
s 1
f 49/89/25 52/90/25 47/91/26 48/92/26
s 1
f 50/93/27 51/94/27 52/95/25 49/96/25
s 1
f 55/97/28 54/98/28 53/99/29 56/100/29
s 1
f 56/101/29 53/102/29 58/103/30 57/104/30
usemtl Material_ground.jpg
s 1
f 9/105/31 23/106/32 21/107/33 10/108/34
s 1
f 23/109/32 18/110/35 17/111/36 21/112/33
s 1
f 18/113/35 24/114/37 22/115/38 17/116/36
s 1
f 24/117/37 13/118/39 14/119/40 22/120/38
s 1
f 10/121/34 21/122/33 26/123/41 11/124/42
s 1
f 21/125/33 17/126/36 19/127/43 26/128/41
s 1
f 17/129/36 22/130/38 25/131/44 19/132/43
s 1
f 22/133/38 14/134/40 15/135/45 25/136/44
s 1
f 11/137/42 26/138/41 28/139/46 12/140/47
s 1
f 26/141/41 19/142/43 20/143/48 28/144/46
s 1
f 19/145/43 25/146/44 27/147/49 20/148/48
s 1
f 25/149/44 15/150/45 16/151/50 27/152/49
s 1
f 12/153/47 28/154/46 23/155/32 9/156/31
s 1
f 28/157/46 20/158/48 18/159/35 23/160/32
s 1
f 20/161/48 27/162/49 24/163/37 18/164/35
s 1
f 27/165/49 16/166/50 13/167/39 24/168/37
usemtl Material_boiler_plate.jpg
f 1/169/8 2/170/8 3/171/8 4/172/8
f 5/173/7 8/174/7 7/175/7 6/176/7
f 1/177/51 5/178/51 6/179/51 2/180/51
f 2/181/10 6/182/10 7/183/10 3/184/10
f 3/185/52 7/186/52 8/187/52 4/188/52
f 1/189/53 4/190/53 61/191/53 62/192/53
f 62/193/54 61/194/54 63/195/54 64/196/54
f 59/197/55 62/198/55 64/199/55 65/200/55
f 61/201/56 60/202/56 66/203/56 63/204/56
f 60/205/57 59/206/57 65/207/57 66/208/57
usemtl Material.001
s 1
f 75/209/58 89/210/59 88/211/60 76/212/61
s 1
f 89/213/59 84/214/62 83/215/63 88/216/60
s 1
f 84/217/62 90/218/64 87/219/65 83/220/63
s 1
f 90/221/64 79/222/66 80/223/67 87/224/65
s 1
f 76/225/61 88/226/60 92/227/68 77/228/69
s 1
f 88/229/60 83/230/63 85/231/70 92/232/68
s 1
f 83/233/63 87/234/65 91/235/71 85/236/70
s 1
f 87/237/65 80/238/67 81/239/72 91/240/71
s 1
f 77/241/69 92/242/68 94/243/73 78/244/74
s 1
f 92/245/68 85/246/70 86/247/75 94/248/73
s 1
f 85/249/70 91/250/71 93/251/76 86/252/75
s 1
f 91/253/71 81/254/72 82/255/77 93/256/76
s 1
f 78/257/74 94/258/73 89/259/59 75/260/58
s 1
f 94/261/73 86/262/75 84/263/62 89/264/59
s 1
f 86/265/75 93/266/76 90/267/64 84/268/62
s 1
f 93/269/76 82/270/77 79/271/66 90/272/64
