# Blender3D v244 OBJ File: scuzzy-1.blend
# www.blender3d.org
mtllib scuzzy-1.mtl
o Plane
v 0.125000 0.625000 -0.300000
v 0.125000 0.375000 -0.300000
v -0.125000 0.375000 -0.300000
v -0.125000 0.625000 -0.300000
v 0.478766 0.420753 -0.300000
v 0.262260 0.295753 -0.300000
v 0.387260 0.079247 -0.300000
v 0.603766 0.204247 -0.300000
v 0.478766 -0.420753 -0.300000
v 0.262260 -0.295753 -0.300000
v 0.387260 -0.079247 -0.300000
v 0.603766 -0.204247 -0.300000
v 0.125000 -0.625000 -0.300000
v 0.125000 -0.375000 -0.300000
v -0.125000 -0.375000 -0.300000
v -0.125000 -0.625000 -0.300000
v -0.603766 -0.204247 -0.300000
v -0.387259 -0.079247 -0.300000
v -0.262259 -0.295753 -0.300000
v -0.478766 -0.420753 -0.300000
v -0.603766 0.204247 -0.300000
v -0.387260 0.079247 -0.300000
v -0.262260 0.295753 -0.300000
v -0.478766 0.420753 -0.300000
v 0.437500 0.000000 -0.300000
v 0.375000 0.000000 -0.200000
v 0.312500 0.000000 -0.300000
v 0.378886 0.218750 -0.300000
v 0.324760 0.187500 -0.200000
v 0.270633 0.156250 -0.300000
v 0.218750 0.378886 -0.300000
v 0.187500 0.324760 -0.200000
v 0.156250 0.270633 -0.300000
v -0.000000 0.437500 -0.300000
v -0.000000 0.375000 -0.200000
v -0.000000 0.312500 -0.300000
v -0.218750 0.378886 -0.300000
v -0.187500 0.324760 -0.200000
v -0.156250 0.270633 -0.300000
v -0.378886 0.218750 -0.300000
v -0.324760 0.187500 -0.200000
v -0.270633 0.156250 -0.300000
v -0.437500 -0.000000 -0.300000
v -0.375000 -0.000000 -0.200000
v -0.312500 -0.000000 -0.300000
v -0.378886 -0.218750 -0.300000
v -0.324760 -0.187500 -0.200000
v -0.270633 -0.156250 -0.300000
v -0.218750 -0.378886 -0.300000
v -0.187500 -0.324760 -0.200000
v -0.156250 -0.270633 -0.300000
v 0.000000 -0.437500 -0.300000
v 0.000000 -0.375000 -0.200000
v 0.000000 -0.312500 -0.300000
v 0.218750 -0.378886 -0.300000
v 0.187500 -0.324760 -0.200000
v 0.156250 -0.270633 -0.300000
v 0.378886 -0.218750 -0.300000
v 0.324759 -0.187500 -0.200000
v 0.270633 -0.156250 -0.300000
v 0.375000 -0.000000 -0.300000
v 0.187500 -0.324760 -0.300000
v -0.187500 -0.324759 -0.300000
v -0.375000 0.000000 -0.300000
v -0.187500 0.324760 -0.300000
v 0.187500 0.324759 -0.300000
v -0.000000 0.000000 -0.300000
v 0.000000 0.281250 0.000000
v 0.243570 0.140625 0.000000
v 0.243570 -0.140625 0.000000
v -0.000000 -0.281250 0.000000
v -0.243570 -0.140625 0.000000
v -0.243570 0.140625 0.000000
v 0.000000 0.000000 0.100000
vt 0.968503 0.186593 0.0
vt 0.933914 0.196349 0.0
vt 0.878305 0.094954 0.0
vt 0.903626 0.068298 0.0
vt 0.933914 0.196349 0.0
vt 0.899325 0.206106 0.0
vt 0.852984 0.121610 0.0
vt 0.878305 0.094954 0.0
vt 0.968503 0.323188 0.0
vt 0.933914 0.313431 0.0
vt 0.933914 0.196349 0.0
vt 0.968503 0.186593 0.0
vt 0.933914 0.313431 0.0
vt 0.899325 0.303674 0.0
vt 0.899325 0.206106 0.0
vt 0.933914 0.196349 0.0
vt 0.903626 0.441483 0.0
vt 0.878305 0.414826 0.0
vt 0.933914 0.313431 0.0
vt 0.968503 0.323188 0.0
vt 0.878305 0.414826 0.0
vt 0.852984 0.388170 0.0
vt 0.899325 0.303674 0.0
vt 0.933914 0.313431 0.0
vt 0.791255 0.509780 0.0
vt 0.781987 0.473367 0.0
vt 0.878305 0.414826 0.0
vt 0.903626 0.441483 0.0
vt 0.781987 0.473367 0.0
vt 0.772719 0.436954 0.0
vt 0.852984 0.388170 0.0
vt 0.878305 0.414826 0.0
vt 0.661500 0.509780 0.0
vt 0.670768 0.473367 0.0
vt 0.781987 0.473367 0.0
vt 0.791255 0.509780 0.0
vt 0.670768 0.473367 0.0
vt 0.680036 0.436954 0.0
vt 0.772719 0.436954 0.0
vt 0.781987 0.473367 0.0
vt 0.549129 0.441483 0.0
vt 0.574450 0.414826 0.0
vt 0.670768 0.473367 0.0
vt 0.661500 0.509780 0.0
vt 0.574450 0.414826 0.0
vt 0.599771 0.388170 0.0
vt 0.680036 0.436954 0.0
vt 0.670768 0.473367 0.0
vt 0.484252 0.323188 0.0
vt 0.518841 0.313431 0.0
vt 0.574450 0.414826 0.0
vt 0.549129 0.441483 0.0
vt 0.518841 0.313431 0.0
vt 0.553430 0.303674 0.0
vt 0.599771 0.388170 0.0
vt 0.574450 0.414826 0.0
vt 0.484252 0.186592 0.0
vt 0.518841 0.196349 0.0
vt 0.518841 0.313431 0.0
vt 0.484252 0.323188 0.0
vt 0.518841 0.196349 0.0
vt 0.553430 0.206106 0.0
vt 0.553430 0.303674 0.0
vt 0.518841 0.313431 0.0
vt 0.549129 0.068298 0.0
vt 0.574450 0.094954 0.0
vt 0.518841 0.196349 0.0
vt 0.484252 0.186592 0.0
vt 0.574450 0.094954 0.0
vt 0.599771 0.121610 0.0
vt 0.553430 0.206106 0.0
vt 0.518841 0.196349 0.0
vt 0.661500 0.000000 0.0
vt 0.670768 0.036413 0.0
vt 0.574450 0.094954 0.0
vt 0.549129 0.068298 0.0
vt 0.670768 0.036413 0.0
vt 0.680036 0.072826 0.0
vt 0.599771 0.121610 0.0
vt 0.574450 0.094954 0.0
vt 0.791255 0.000000 0.0
vt 0.781987 0.036413 0.0
vt 0.670768 0.036413 0.0
vt 0.661500 0.000000 0.0
vt 0.781987 0.036413 0.0
vt 0.772719 0.072826 0.0
vt 0.680036 0.072826 0.0
vt 0.670768 0.036413 0.0
vt 0.903626 0.068298 0.0
vt 0.878305 0.094954 0.0
vt 0.781987 0.036413 0.0
vt 0.791255 0.000000 0.0
vt 0.878305 0.094954 0.0
vt 0.852984 0.121610 0.0
vt 0.772719 0.072826 0.0
vt 0.781987 0.036413 0.0
vt 0.670433 0.735964 0.0
vt 0.484252 0.623073 0.0
vt 0.484471 0.849257 0.0
vt 0.670433 0.735964 0.0
vt 0.670214 0.509780 0.0
vt 0.484252 0.623073 0.0
vt 0.670433 0.735964 0.0
vt 0.856396 0.622672 0.0
vt 0.670214 0.509780 0.0
vt 0.670433 0.735964 0.0
vt 0.856615 0.848856 0.0
vt 0.856396 0.622672 0.0
vt 0.670433 0.735964 0.0
vt 0.670653 0.962148 0.0
vt 0.856615 0.848856 0.0
vt 0.670433 0.735964 0.0
vt 0.484471 0.849257 0.0
vt 0.670653 0.962148 0.0
vt 0.344615 0.679418 0.0
vt 0.484252 0.764087 0.0
vt 0.484087 0.594449 0.0
vt 0.344615 0.679418 0.0
vt 0.344780 0.849056 0.0
vt 0.484252 0.764087 0.0
vt 0.344615 0.679418 0.0
vt 0.205144 0.764387 0.0
vt 0.344780 0.849056 0.0
vt 0.344615 0.679418 0.0
vt 0.204979 0.594749 0.0
vt 0.205144 0.764387 0.0
vt 0.344615 0.679418 0.0
vt 0.344451 0.509780 0.0
vt 0.204979 0.594749 0.0
vt 0.344615 0.679418 0.0
vt 0.484087 0.594449 0.0
vt 0.344451 0.509780 0.0
vt 0.204979 0.660569 0.0
vt 0.061741 0.661032 0.0
vt 0.061302 0.510243 0.0
vt 0.204540 0.509780 0.0
vt 0.348364 0.999846 0.0
vt 0.205125 1.000000 0.0
vt 0.204979 0.849211 0.0
vt 0.348217 0.849056 0.0
vt 0.999853 0.811667 0.0
vt 0.856615 0.811513 0.0
vt 0.856762 0.660724 0.0
vt 1.000000 0.660878 0.0
vt 0.061741 0.661032 0.0
vt 0.204979 0.661494 0.0
vt 0.204540 0.812283 0.0
vt 0.061302 0.811820 0.0
vt 0.856615 0.509934 0.0
vt 0.999853 0.509780 0.0
vt 1.000000 0.660570 0.0
vt 0.856762 0.660724 0.0
vt 0.061741 0.812283 0.0
vt 0.204979 0.812437 0.0
vt 0.204833 0.963227 0.0
vt 0.061594 0.963073 0.0
vn 0.734367 0.423994 0.529984
vn 0.000000 0.000000 1.000000
vn 0.847987 0.000000 0.529984
vn -0.734367 -0.423994 0.529984
vn -0.847987 0.000000 0.529984
vn 0.423994 0.734367 0.529984
vn -0.423994 -0.734367 0.529984
vn 0.000000 0.847987 0.529984
vn 0.000000 -0.847987 0.529984
vn -0.423994 0.734367 0.529984
vn 0.423994 -0.734367 0.529984
vn -0.734367 0.423994 0.529984
vn 0.734367 -0.423994 0.529984
vn 0.290109 0.167486 0.942198
vn 0.000000 0.335002 0.942198
vn 0.290109 -0.167486 0.942198
vn 0.000000 -0.335002 0.942198
vn -0.290109 -0.167486 0.942198
vn -0.290109 0.167486 0.942198
usemtl None_heat_stressed.jpg
s 1
f 28/1/1 29/2/2 26/3/2 25/4/3
s 1
f 29/5/2 30/6/4 27/7/5 26/8/2
s 1
f 31/9/6 32/10/2 29/11/2 28/12/1
s 1
f 32/13/2 33/14/7 30/15/4 29/16/2
s 1
f 34/17/8 35/18/2 32/19/2 31/20/6
s 1
f 35/21/2 36/22/9 33/23/7 32/24/2
s 1
f 37/25/10 38/26/2 35/27/2 34/28/8
s 1
f 38/29/2 39/30/11 36/31/9 35/32/2
s 1
f 40/33/12 41/34/2 38/35/2 37/36/10
s 1
f 41/37/2 42/38/13 39/39/11 38/40/2
s 1
f 43/41/5 44/42/2 41/43/2 40/44/12
s 1
f 44/45/2 45/46/3 42/47/13 41/48/2
s 1
f 46/49/4 47/50/2 44/51/2 43/52/5
s 1
f 47/53/2 48/54/1 45/55/3 44/56/2
s 1
f 49/57/7 50/58/2 47/59/2 46/60/4
s 1
f 50/61/2 51/62/6 48/63/1 47/64/2
s 1
f 52/65/9 53/66/2 50/67/2 49/68/7
s 1
f 53/69/2 54/70/8 51/71/6 50/72/2
s 1
f 55/73/11 56/74/2 53/75/2 52/76/9
s 1
f 56/77/2 57/78/10 54/79/8 53/80/2
s 1
f 58/81/13 59/82/2 56/83/2 55/84/11
s 1
f 59/85/2 60/86/12 57/87/10 56/88/2
s 1
f 25/89/3 26/90/2 59/91/2 58/92/13
s 1
f 26/93/2 27/94/5 60/95/12 59/96/2
s 1
f 67/97/2 62/98/2 61/99/2
s 1
f 67/100/2 63/101/2 62/102/2
s 1
f 67/103/2 64/104/2 63/105/2
s 1
f 67/106/2 65/107/2 64/108/2
s 1
f 67/109/2 66/110/2 65/111/2
s 1
f 67/112/2 61/113/2 66/114/2
s 1
f 74/115/2 69/116/14 68/117/15
s 1
f 74/118/2 70/119/16 69/120/14
s 1
f 74/121/2 71/122/17 70/123/16
s 1
f 74/124/2 72/125/18 71/126/17
s 1
f 74/127/2 73/128/19 72/129/18
s 1
f 74/130/2 68/131/15 73/132/19
usemtl None_caststeel.jpg
s 1
f 1/133/2 4/134/2 3/135/2 2/136/2
s 1
f 6/137/2 7/138/2 8/139/2 5/140/2
s 1
f 11/141/2 10/142/2 9/143/2 12/144/2
s 1
f 14/145/2 15/146/2 16/147/2 13/148/2
s 1
f 19/149/2 18/150/2 17/151/2 20/152/2
s 1
f 22/153/2 23/154/2 24/155/2 21/156/2
