# Blender3D v244 OBJ File: simple-3.blend
# www.blender3d.org
mtllib simple-3.mtl
o Plane
v -0.000000 -1.476000 -0.300000
v -0.000000 -1.353000 -0.075000
v -0.000000 -1.230000 -0.300000
v 1.278253 0.738000 -0.300000
v 1.171732 0.676500 -0.075000
v 1.065211 0.615000 -0.300000
v -1.278254 0.738000 -0.300000
v -1.171732 0.676500 -0.075000
v -1.065211 0.615000 -0.300000
v -0.790629 0.942235 -0.300000
v -0.869692 1.036458 -0.075000
v -0.948755 1.130682 -0.300000
v 1.211314 0.213587 -0.300000
v 1.332445 0.234946 -0.075000
v 1.453576 0.256305 -0.300000
v -0.420685 -1.155822 -0.300000
v -0.462753 -1.271404 -0.075000
v -0.504822 -1.386986 -0.300000
v -0.948754 -1.130682 -0.300000
v -0.869692 -1.036458 -0.075000
v -0.790629 -0.942235 -0.300000
v 1.453576 -0.256305 -0.300000
v 1.332445 -0.234946 -0.075000
v 1.211314 -0.213587 -0.300000
v -0.504822 1.386986 -0.300000
v -0.462753 1.271404 -0.075000
v -0.420685 1.155822 -0.300000
v -0.000000 1.230000 -0.300000
v -0.000000 1.353000 -0.075000
v -0.000000 1.476000 -0.300000
v 1.065211 -0.615000 -0.300000
v 1.171732 -0.676500 -0.075000
v 1.278253 -0.738000 -0.300000
v -1.065211 -0.615000 -0.300000
v -1.171732 -0.676500 -0.075000
v -1.278253 -0.738000 -0.300000
v -1.453576 -0.256305 -0.300000
v -1.332445 -0.234946 -0.075000
v -1.211314 -0.213587 -0.300000
v 0.948755 -1.130682 -0.300000
v 0.869692 -1.036458 -0.075000
v 0.790629 -0.942235 -0.300000
v 0.504822 1.386986 -0.300000
v 0.462753 1.271404 -0.075000
v 0.420685 1.155822 -0.300000
v 0.790629 0.942235 -0.300000
v 0.869691 1.036458 -0.075000
v 0.948754 1.130682 -0.300000
v 0.420685 -1.155822 -0.300000
v 0.462753 -1.271404 -0.075000
v 0.504822 -1.386986 -0.300000
v -1.211314 0.213587 -0.300000
v -1.332445 0.234946 -0.075000
v -1.453576 0.256305 -0.300000
v 0.608819 0.608819 -0.300000
v 0.831662 -0.222843 -0.300000
v 0.222843 -0.831662 -0.300000
v -0.608819 -0.608819 -0.300000
v -0.831662 0.222844 -0.300000
v -0.222843 0.831662 -0.300000
v 0.000000 0.000000 -0.223088
v 0.131622 1.599000 -0.300000
v 0.093750 1.259807 -0.249640
v -0.093750 1.259807 -0.249640
v -0.131622 1.599000 -0.300000
v 0.086974 0.086974 -0.306250
v 0.118809 -0.031835 -0.306250
v 0.031835 -0.118809 -0.306250
v -0.086974 -0.086974 -0.306250
v -0.118809 0.031835 -0.306250
v -0.031835 0.118809 -0.306250
v 0.173948 0.173948 0.031250
v 0.237618 -0.063669 0.031250
v 0.063670 -0.237618 0.031250
v -0.173948 -0.173948 0.031250
v -0.237618 0.063669 0.031250
v -0.063670 0.237618 0.031250
v 0.000000 0.000000 0.077644
v 0.423206 1.547586 -0.300000
v 0.342783 1.215896 -0.249640
v 0.518976 1.151767 -0.249640
v 0.670574 1.457551 -0.300000
v 1.128646 1.140300 -0.300000
v 0.881605 0.904807 -0.249640
v 0.737971 1.025329 -0.249640
v 0.926989 1.309510 -0.300000
v 1.318964 0.913488 -0.300000
v 1.044149 0.711094 -0.249640
v 1.137900 0.548714 -0.249640
v 1.450585 0.685512 -0.300000
v 1.597564 0.148041 -0.300000
v 1.256947 0.126437 -0.249640
v 1.224388 0.311089 -0.249640
v 1.551852 0.407286 -0.300000
v 1.597564 -0.148041 -0.300000
v 1.256947 -0.126437 -0.249640
v 1.224388 -0.311089 -0.249640
v 1.551852 -0.407285 -0.300000
v 1.318964 -0.913488 -0.300000
v 1.044150 -0.711093 -0.249640
v 1.137900 -0.548713 -0.249640
v 1.450586 -0.685512 -0.300000
v 1.128646 -1.140300 -0.300000
v 0.881605 -0.904806 -0.249640
v 0.737972 -1.025329 -0.249640
v 0.926989 -1.309510 -0.300000
v 0.423207 -1.547586 -0.300000
v 0.342783 -1.215895 -0.249640
v 0.518976 -1.151766 -0.249640
v 0.670575 -1.457551 -0.300000
v 0.131622 -1.599000 -0.300000
v 0.093751 -1.259807 -0.249640
v -0.093750 -1.259807 -0.249640
v -0.131621 -1.599000 -0.300000
v -0.670574 -1.457552 -0.300000
v -0.518975 -1.151767 -0.249640
v -0.342783 -1.215896 -0.249640
v -0.423206 -1.547586 -0.300000
v -0.926989 -1.309510 -0.300000
v -0.737971 -1.025330 -0.249640
v -0.881604 -0.904807 -0.249640
v -1.128645 -1.140301 -0.300000
v -1.450585 -0.685513 -0.300000
v -1.137899 -0.548714 -0.249640
v -1.044149 -0.711094 -0.249640
v -1.318964 -0.913488 -0.300000
v -1.551852 -0.407286 -0.300000
v -1.224388 -0.311090 -0.249640
v -1.256947 -0.126438 -0.249640
v -1.597564 -0.148042 -0.300000
v -1.551852 0.407285 -0.300000
v -1.224388 0.311088 -0.249640
v -1.256947 0.126437 -0.249640
v -1.597564 0.148041 -0.300000
v -1.450586 0.685512 -0.300000
v -1.137900 0.548713 -0.249640
v -1.044150 0.711093 -0.249640
v -1.318964 0.913487 -0.300000
v -0.926990 1.309510 -0.300000
v -0.737972 1.025329 -0.249640
v -0.881605 0.904806 -0.249640
v -1.128646 1.140300 -0.300000
v -0.670575 1.457551 -0.300000
v -0.518976 1.151766 -0.249640
v -0.342784 1.215895 -0.249640
v -0.423207 1.547586 -0.300000
vt 0.500000 0.076923 0.0
vt 0.500000 0.038461 0.0
vt 0.900439 0.730769 0.0
vt 0.867069 0.711538 0.0
vt 0.867069 0.711538 0.0
vt 0.833699 0.692308 0.0
vt 0.500000 0.115385 0.0
vt 0.500000 0.076923 0.0
vt 0.099561 0.730769 0.0
vt 0.132931 0.711538 0.0
vt 0.867069 0.711538 0.0
vt 0.900439 0.730769 0.0
vt 0.132931 0.711538 0.0
vt 0.166301 0.692308 0.0
vt 0.833699 0.692308 0.0
vt 0.867069 0.711538 0.0
vt 0.500000 0.038461 0.0
vt 0.500000 0.076923 0.0
vt 0.132931 0.711538 0.0
vt 0.099561 0.730769 0.0
vt 0.500000 0.076923 0.0
vt 0.500000 0.115385 0.0
vt 0.166301 0.692308 0.0
vt 0.132931 0.711538 0.0
vt 0.355033 0.102438 0.0
vt 0.368212 0.138580 0.0
vt 0.252320 0.794632 0.0
vt 0.227552 0.824096 0.0
vt 0.341854 0.066296 0.0
vt 0.355033 0.102438 0.0
vt 0.227552 0.824096 0.0
vt 0.202783 0.853559 0.0
vt 0.227552 0.824096 0.0
vt 0.252320 0.794632 0.0
vt 0.879468 0.566788 0.0
vt 0.917415 0.573466 0.0
vt 0.202783 0.853559 0.0
vt 0.227552 0.824096 0.0
vt 0.917415 0.573466 0.0
vt 0.955362 0.580145 0.0
vt 0.917415 0.573466 0.0
vt 0.879468 0.566788 0.0
vt 0.368212 0.138580 0.0
vt 0.355033 0.102438 0.0
vt 0.955362 0.580145 0.0
vt 0.917415 0.573466 0.0
vt 0.355033 0.102438 0.0
vt 0.341854 0.066296 0.0
vt 0.955362 0.419855 0.0
vt 0.917415 0.426533 0.0
vt 0.227551 0.175904 0.0
vt 0.202783 0.146441 0.0
vt 0.917415 0.426533 0.0
vt 0.879468 0.433212 0.0
vt 0.252320 0.205367 0.0
vt 0.227551 0.175904 0.0
vt 0.341854 0.933704 0.0
vt 0.355033 0.897562 0.0
vt 0.917415 0.426533 0.0
vt 0.955362 0.419855 0.0
vt 0.355033 0.897562 0.0
vt 0.368212 0.861420 0.0
vt 0.879468 0.433212 0.0
vt 0.917415 0.426533 0.0
vt 0.202783 0.146441 0.0
vt 0.227551 0.175904 0.0
vt 0.355033 0.897562 0.0
vt 0.341854 0.933704 0.0
vt 0.227551 0.175904 0.0
vt 0.252320 0.205367 0.0
vt 0.368212 0.861420 0.0
vt 0.355033 0.897562 0.0
vt 0.132931 0.288462 0.0
vt 0.166301 0.307692 0.0
vt 0.500000 0.884615 0.0
vt 0.500000 0.923077 0.0
vt 0.099561 0.269231 0.0
vt 0.132931 0.288462 0.0
vt 0.500000 0.923077 0.0
vt 0.500000 0.961538 0.0
vt 0.500000 0.923077 0.0
vt 0.500000 0.884615 0.0
vt 0.833699 0.307692 0.0
vt 0.867069 0.288461 0.0
vt 0.500000 0.961538 0.0
vt 0.500000 0.923077 0.0
vt 0.867069 0.288461 0.0
vt 0.900439 0.269231 0.0
vt 0.867069 0.288461 0.0
vt 0.833699 0.307692 0.0
vt 0.166301 0.307692 0.0
vt 0.132931 0.288462 0.0
vt 0.900439 0.269231 0.0
vt 0.867069 0.288461 0.0
vt 0.132931 0.288462 0.0
vt 0.099561 0.269231 0.0
vt 0.797216 0.146441 0.0
vt 0.772448 0.175904 0.0
vt 0.082585 0.426533 0.0
vt 0.044638 0.419855 0.0
vt 0.772448 0.175904 0.0
vt 0.747680 0.205367 0.0
vt 0.120532 0.433212 0.0
vt 0.082585 0.426533 0.0
vt 0.658146 0.933704 0.0
vt 0.644967 0.897562 0.0
vt 0.772448 0.175904 0.0
vt 0.797216 0.146441 0.0
vt 0.644967 0.897562 0.0
vt 0.631788 0.861420 0.0
vt 0.747680 0.205367 0.0
vt 0.772448 0.175904 0.0
vt 0.044638 0.419855 0.0
vt 0.082585 0.426533 0.0
vt 0.644967 0.897562 0.0
vt 0.658146 0.933704 0.0
vt 0.082585 0.426533 0.0
vt 0.120532 0.433212 0.0
vt 0.631788 0.861420 0.0
vt 0.644967 0.897562 0.0
vt 0.082585 0.573466 0.0
vt 0.120532 0.566788 0.0
vt 0.747680 0.794632 0.0
vt 0.772448 0.824096 0.0
vt 0.044638 0.580145 0.0
vt 0.082585 0.573466 0.0
vt 0.772448 0.824096 0.0
vt 0.797216 0.853559 0.0
vt 0.772448 0.824096 0.0
vt 0.747680 0.794632 0.0
vt 0.631788 0.138580 0.0
vt 0.644967 0.102438 0.0
vt 0.797216 0.853559 0.0
vt 0.772448 0.824096 0.0
vt 0.644967 0.102438 0.0
vt 0.658146 0.066296 0.0
vt 0.644967 0.102438 0.0
vt 0.631788 0.138580 0.0
vt 0.120532 0.566788 0.0
vt 0.082585 0.573466 0.0
vt 0.658146 0.066296 0.0
vt 0.644967 0.102438 0.0
vt 0.082585 0.573466 0.0
vt 0.044638 0.580145 0.0
vt 0.500000 0.500000 0.0
vt 0.760535 0.430318 0.0
vt 0.690725 0.690375 0.0
vt 0.500000 0.500000 0.0
vt 0.569810 0.239943 0.0
vt 0.760535 0.430318 0.0
vt 0.500000 0.500000 0.0
vt 0.309275 0.309625 0.0
vt 0.569810 0.239943 0.0
vt 0.500000 0.500000 0.0
vt 0.239465 0.569682 0.0
vt 0.309275 0.309625 0.0
vt 0.500000 0.500000 0.0
vt 0.430190 0.760057 0.0
vt 0.239465 0.569682 0.0
vt 0.500000 0.500000 0.0
vt 0.690725 0.690375 0.0
vt 0.430190 0.760057 0.0
vt 0.461468 0.888462 0.0
vt 0.538532 0.888462 0.0
vt 0.538532 1.000000 0.0
vt 0.461468 1.000000 0.0
vt 0.500000 0.500000 0.0
vt 0.574439 0.480091 0.0
vt 0.554493 0.554393 0.0
vt 0.500000 0.500000 0.0
vt 0.519946 0.425698 0.0
vt 0.574439 0.480091 0.0
vt 0.500000 0.500000 0.0
vt 0.445507 0.445607 0.0
vt 0.519946 0.425698 0.0
vt 0.500000 0.500000 0.0
vt 0.425561 0.519909 0.0
vt 0.445507 0.445607 0.0
vt 0.500000 0.500000 0.0
vt 0.480054 0.574302 0.0
vt 0.425561 0.519909 0.0
vt 0.500000 0.500000 0.0
vt 0.554493 0.554393 0.0
vt 0.480054 0.574302 0.0
vt 0.527246 0.527196 0.0
vt 0.554493 0.554393 0.0
vt 0.574439 0.480091 0.0
vt 0.537219 0.490045 0.0
vt 0.537219 0.490045 0.0
vt 0.574439 0.480091 0.0
vt 0.519946 0.425698 0.0
vt 0.509973 0.462849 0.0
vt 0.509973 0.462849 0.0
vt 0.519946 0.425698 0.0
vt 0.445507 0.445607 0.0
vt 0.472754 0.472804 0.0
vt 0.472754 0.472804 0.0
vt 0.445507 0.445607 0.0
vt 0.425561 0.519909 0.0
vt 0.462781 0.509955 0.0
vt 0.462781 0.509955 0.0
vt 0.425561 0.519909 0.0
vt 0.480054 0.574302 0.0
vt 0.490027 0.537151 0.0
vt 0.490027 0.537151 0.0
vt 0.480054 0.574302 0.0
vt 0.554493 0.554393 0.0
vt 0.527246 0.527196 0.0
vt 0.461468 0.888462 0.0
vt 0.538532 0.888462 0.0
vt 0.538532 1.000000 0.0
vt 0.461468 1.000000 0.0
vt 0.461468 0.888462 0.0
vt 0.538532 0.888462 0.0
vt 0.538532 1.000000 0.0
vt 0.461468 1.000000 0.0
vt 0.461468 0.888462 0.0
vt 0.538532 0.888462 0.0
vt 0.538532 1.000000 0.0
vt 0.461468 1.000000 0.0
vt 0.461468 0.888462 0.0
vt 0.538532 0.888462 0.0
vt 0.538532 1.000000 0.0
vt 0.461468 1.000000 0.0
vt 0.461468 0.888462 0.0
vt 0.538532 0.888462 0.0
vt 0.538532 1.000000 0.0
vt 0.461468 1.000000 0.0
vt 0.461468 0.888462 0.0
vt 0.538532 0.888462 0.0
vt 0.538532 1.000000 0.0
vt 0.461468 1.000000 0.0
vt 0.461468 0.888462 0.0
vt 0.538532 0.888462 0.0
vt 0.538532 1.000000 0.0
vt 0.461468 1.000000 0.0
vt 0.461468 0.888462 0.0
vt 0.538532 0.888462 0.0
vt 0.538532 1.000000 0.0
vt 0.461468 1.000000 0.0
vt 0.461468 0.888462 0.0
vt 0.538532 0.888462 0.0
vt 0.538532 1.000000 0.0
vt 0.461468 1.000000 0.0
vt 0.461468 0.888462 0.0
vt 0.538532 0.888462 0.0
vt 0.538532 1.000000 0.0
vt 0.461468 1.000000 0.0
vt 0.461468 0.888462 0.0
vt 0.538532 0.888462 0.0
vt 0.538532 1.000000 0.0
vt 0.461468 1.000000 0.0
vt 0.461468 0.888462 0.0
vt 0.538532 0.888462 0.0
vt 0.538532 1.000000 0.0
vt 0.461468 1.000000 0.0
vt 0.461468 0.888462 0.0
vt 0.538532 0.888462 0.0
vt 0.538532 1.000000 0.0
vt 0.461468 1.000000 0.0
vt 0.461468 0.888462 0.0
vt 0.538532 0.888462 0.0
vt 0.538532 1.000000 0.0
vt 0.461468 1.000000 0.0
vt 0.461468 0.888462 0.0
vt 0.538532 0.888462 0.0
vt 0.538532 1.000000 0.0
vt 0.461468 1.000000 0.0
vt 0.461468 0.888462 0.0
vt 0.538532 0.888462 0.0
vt 0.538532 1.000000 0.0
vt 0.461468 1.000000 0.0
vt 0.461468 0.888462 0.0
vt 0.538532 0.888462 0.0
vt 0.538532 1.000000 0.0
vt 0.461468 1.000000 0.0
vn 0.835381 -0.482308 0.263661
vn -0.835381 0.482308 0.263662
vn -0.000000 0.964615 0.263662
vn 0.000000 -0.964615 0.263662
vn -0.835381 -0.482308 0.263662
vn 0.835381 0.482308 0.263661
vn 0.949961 0.167504 0.263661
vn -0.949961 -0.167504 0.263662
vn -0.329918 -0.906442 0.263662
vn 0.329918 0.906442 0.263662
vn -0.620043 0.738938 0.263662
vn 0.620043 -0.738938 0.263661
vn 0.329918 -0.906442 0.263662
vn -0.329918 0.906442 0.263662
vn 0.620043 0.738938 0.263662
vn -0.620043 -0.738938 0.263662
vn -0.949961 0.167504 0.263661
vn 0.949961 -0.167504 0.263661
vn -0.835381 0.482308 0.263661
vn 0.835381 0.482308 0.263662
vn -0.329918 -0.906442 0.263661
vn 0.949960 0.167504 0.263662
vn -0.949961 -0.167504 0.263661
vn -0.620043 0.738938 0.263661
vn 0.329918 -0.906442 0.263661
vn -0.329918 0.906442 0.263661
vn 0.949960 -0.167504 0.263662
vn 0.099107 0.026556 0.994722
vn 0.072551 -0.072551 0.994722
vn -0.026556 -0.099107 0.994722
vn -0.099107 -0.026556 0.994722
vn -0.072551 0.072551 0.994722
vn 0.026556 0.099107 0.994722
vn 0.000000 0.146860 0.989157
vn 0.205533 0.055072 0.977099
vn 0.150461 -0.150461 0.977099
vn -0.055072 -0.205533 0.977099
vn -0.205533 -0.055073 0.977099
vn -0.150461 0.150460 0.977099
vn 0.055072 0.205533 0.977099
vn 0.921135 0.246818 -0.300983
vn 0.674318 -0.674318 -0.300983
vn -0.246817 -0.921136 -0.300983
vn -0.921135 -0.246818 -0.300983
vn -0.674318 0.674318 -0.300983
vn 0.246817 0.921136 -0.300983
vn 0.050229 0.138003 0.989157
vn 0.094400 0.112501 0.989157
vn 0.127184 0.073430 0.989157
vn 0.144629 0.025502 0.989157
vn 0.144629 -0.025502 0.989157
vn 0.127184 -0.073430 0.989157
vn 0.094400 -0.112501 0.989157
vn 0.050229 -0.138003 0.989157
vn 0.000000 -0.146860 0.989157
vn -0.050229 -0.138003 0.989157
vn -0.094400 -0.112501 0.989157
vn -0.127184 -0.073430 0.989157
vn -0.144628 -0.025502 0.989157
vn -0.144629 0.025502 0.989157
vn -0.127184 0.073430 0.989157
vn -0.094400 0.112501 0.989157
vn -0.050229 0.138003 0.989157
usemtl None_caststeel.jpg
s 1
f 2/1/1 1/2/1 4/3/1 5/4/1
f 5/5/2 6/6/2 3/7/2 2/8/2
f 7/9/3 8/10/3 5/11/3 4/12/3
f 8/13/4 9/14/4 6/15/4 5/16/4
f 1/17/5 2/18/5 8/19/5 7/20/5
f 2/21/6 3/22/6 9/23/6 8/24/6
f 17/25/7 16/26/7 10/27/7 11/28/7
f 18/29/8 17/30/8 11/31/8 12/32/8
f 11/33/9 10/34/9 13/35/9 14/36/9
f 12/37/10 11/38/10 14/39/10 15/40/10
f 14/41/11 13/42/11 16/43/11 17/44/11
f 15/45/12 14/46/12 17/47/12 18/48/12
f 22/49/13 23/50/13 20/51/13 19/52/13
f 23/53/14 24/54/14 21/55/14 20/56/14
f 25/57/15 26/58/15 23/59/15 22/60/15
f 26/61/16 27/62/16 24/63/16 23/64/16
f 19/65/17 20/66/17 26/67/17 25/68/17
f 20/69/18 21/70/18 27/71/18 26/72/18
f 35/73/1 34/74/1 28/75/1 29/76/1
f 36/77/19 35/78/19 29/79/19 30/80/19
f 29/81/5 28/82/5 31/83/5 32/84/5
f 30/85/20 29/86/20 32/87/20 33/88/20
f 32/89/3 31/90/3 34/91/3 35/92/3
f 33/93/4 32/94/4 35/95/4 36/96/4
f 40/97/21 41/98/21 38/99/21 37/100/21
f 41/101/10 42/102/10 39/103/10 38/104/10
f 43/105/22 44/106/22 41/107/22 40/108/22
f 44/109/23 45/110/23 42/111/23 41/112/23
f 37/113/24 38/114/24 44/115/24 43/116/24
f 38/117/12 39/118/12 45/119/12 44/120/12
f 53/121/25 52/122/25 46/123/25 47/124/25
f 54/125/26 53/126/26 47/127/26 48/128/26
f 47/129/17 46/130/17 49/131/17 50/132/17
f 48/133/27 47/134/27 50/135/27 51/136/27
f 50/137/15 49/138/15 52/139/15 53/140/15
f 51/141/16 50/142/16 53/143/16 54/144/16
f 61/145/28 56/146/28 55/147/28
f 61/148/29 57/149/29 56/150/29
f 61/151/30 58/152/30 57/153/30
f 61/154/31 59/155/31 58/156/31
f 61/157/32 60/158/32 59/159/32
f 61/160/33 55/161/33 60/162/33
f 64/163/34 63/164/34 62/165/34 65/166/34
f 78/167/35 73/168/35 72/169/35
f 78/170/36 74/171/36 73/172/36
f 78/173/37 75/174/37 74/175/37
f 78/176/38 76/177/38 75/178/38
f 78/179/39 77/180/39 76/181/39
f 78/182/40 72/183/40 77/184/40
f 66/185/41 72/186/41 73/187/41 67/188/41
f 67/189/42 73/190/42 74/191/42 68/192/42
f 68/193/43 74/194/43 75/195/43 69/196/43
f 69/197/44 75/198/44 76/199/44 70/200/44
f 70/201/45 76/202/45 77/203/45 71/204/45
f 71/205/46 77/206/46 72/207/46 66/208/46
f 80/209/47 81/210/47 82/211/47 79/212/47
f 85/213/48 84/214/48 83/215/48 86/216/48
f 88/217/49 89/218/49 90/219/49 87/220/49
f 93/221/50 92/222/50 91/223/50 94/224/50
f 96/225/51 97/226/51 98/227/51 95/228/51
f 101/229/52 100/230/52 99/231/52 102/232/52
f 104/233/53 105/234/53 106/235/53 103/236/53
f 109/237/54 108/238/54 107/239/54 110/240/54
f 112/241/55 113/242/55 114/243/55 111/244/55
f 117/245/56 116/246/56 115/247/56 118/248/56
f 120/249/57 121/250/57 122/251/57 119/252/57
f 125/253/58 124/254/58 123/255/58 126/256/58
f 128/257/59 129/258/59 130/259/59 127/260/59
f 133/261/60 132/262/60 131/263/60 134/264/60
f 136/265/61 137/266/61 138/267/61 135/268/61
f 141/269/62 140/270/62 139/271/62 142/272/62
f 144/273/63 145/274/63 146/275/63 143/276/63
