# Blender3D v244 OBJ File: wheel.blend
# www.blender3d.org
mtllib wheel.mtl
o Torus_Torus.001
v 0.607500 0.000000 0.002500
v 0.540000 0.000000 0.036250
v 0.472500 0.000000 0.002500
v 0.526110 0.303750 0.002500
v 0.467654 0.270000 0.036250
v 0.409197 0.236250 0.002500
v 0.303750 0.526110 0.002500
v 0.270000 0.467654 0.036250
v 0.236250 0.409197 0.002500
v -0.000000 0.607500 0.002500
v -0.000000 0.540000 0.036250
v -0.000000 0.472500 0.002500
v -0.303750 0.526110 0.002500
v -0.270000 0.467654 0.036250
v -0.236250 0.409197 0.002500
v -0.526110 0.303750 0.002500
v -0.467654 0.270000 0.036250
v -0.409197 0.236250 0.002500
v -0.607500 -0.000000 0.002500
v -0.540000 -0.000000 0.036250
v -0.472500 -0.000000 0.002500
v -0.526110 -0.303750 0.002500
v -0.467654 -0.270000 0.036250
v -0.409197 -0.236250 0.002500
v -0.303750 -0.526110 0.002500
v -0.270000 -0.467654 0.036250
v -0.236250 -0.409197 0.002500
v 0.000000 -0.607500 0.002500
v 0.000000 -0.540000 0.036250
v 0.000000 -0.472500 0.002500
v 0.303750 -0.526110 0.002500
v 0.270000 -0.467654 0.036250
v 0.236250 -0.409197 0.002500
v 0.526110 -0.303750 0.002500
v 0.467654 -0.270000 0.036250
v 0.409197 -0.236250 0.002500
vt 0.098392 0.435517 0.0
vt 0.072197 0.455335 0.0
vt 0.000000 0.334174 0.0
vt 0.034217 0.327818 0.0
vt 0.034217 0.327818 0.0
vt 0.060026 0.318224 0.0
vt 0.116180 0.412461 0.0
vt 0.098392 0.435517 0.0
vt 0.000181 0.193780 0.0
vt 0.034378 0.203023 0.0
vt 0.034217 0.327818 0.0
vt 0.000000 0.334174 0.0
vt 0.034378 0.203023 0.0
vt 0.060167 0.209029 0.0
vt 0.060026 0.318224 0.0
vt 0.034217 0.327818 0.0
vt 0.072692 0.071773 0.0
vt 0.098832 0.094573 0.0
vt 0.034378 0.203023 0.0
vt 0.000181 0.193780 0.0
vt 0.098832 0.094573 0.0
vt 0.116564 0.114135 0.0
vt 0.060167 0.209029 0.0
vt 0.034378 0.203023 0.0
vt 0.198103 0.000845 0.0
vt 0.210308 0.031525 0.0
vt 0.098832 0.094573 0.0
vt 0.072692 0.071773 0.0
vt 0.210308 0.031525 0.0
vt 0.214106 0.058968 0.0
vt 0.116564 0.114135 0.0
vt 0.098832 0.094573 0.0
vt 0.342810 0.000000 0.0
vt 0.338937 0.030774 0.0
vt 0.210308 0.031525 0.0
vt 0.198103 0.000845 0.0
vt 0.338937 0.030774 0.0
vt 0.326656 0.058311 0.0
vt 0.214106 0.058968 0.0
vt 0.210308 0.031525 0.0
vt 0.468040 0.069465 0.0
vt 0.450253 0.092521 0.0
vt 0.338937 0.030774 0.0
vt 0.342810 0.000000 0.0
vt 0.450253 0.092521 0.0
vt 0.424057 0.112340 0.0
vt 0.326656 0.058311 0.0
vt 0.338937 0.030774 0.0
vt 0.540237 0.190627 0.0
vt 0.514428 0.200220 0.0
vt 0.450253 0.092521 0.0
vt 0.468040 0.069465 0.0
vt 0.514428 0.200220 0.0
vt 0.480211 0.206576 0.0
vt 0.424057 0.112340 0.0
vt 0.450253 0.092521 0.0
vt 0.540056 0.331020 0.0
vt 0.514267 0.325015 0.0
vt 0.514428 0.200220 0.0
vt 0.540237 0.190627 0.0
vt 0.514267 0.325015 0.0
vt 0.480070 0.315771 0.0
vt 0.480211 0.206576 0.0
vt 0.514428 0.200220 0.0
vt 0.467545 0.453027 0.0
vt 0.449813 0.433465 0.0
vt 0.514267 0.325015 0.0
vt 0.540056 0.331020 0.0
vt 0.449813 0.433465 0.0
vt 0.423673 0.410666 0.0
vt 0.480070 0.315771 0.0
vt 0.514267 0.325015 0.0
vt 0.342134 0.523955 0.0
vt 0.338337 0.496512 0.0
vt 0.449813 0.433465 0.0
vt 0.467545 0.453027 0.0
vt 0.338337 0.496512 0.0
vt 0.326131 0.465832 0.0
vt 0.423673 0.410666 0.0
vt 0.449813 0.433465 0.0
vt 0.197427 0.524800 0.0
vt 0.209708 0.497264 0.0
vt 0.338337 0.496512 0.0
vt 0.342134 0.523955 0.0
vt 0.209708 0.497264 0.0
vt 0.213581 0.466489 0.0
vt 0.326131 0.465832 0.0
vt 0.338337 0.496512 0.0
vt 0.072197 0.455335 0.0
vt 0.098392 0.435517 0.0
vt 0.209708 0.497264 0.0
vt 0.197427 0.524800 0.0
vt 0.098392 0.435517 0.0
vt 0.116180 0.412461 0.0
vt 0.213581 0.466489 0.0
vt 0.209708 0.497264 0.0
vn 0.000000 0.000000 0.999969
vn 0.447188 0.000000 0.894406
vn 0.387280 0.223579 0.894406
vn -0.387280 -0.223579 0.894406
vn -0.447188 0.000000 0.894406
vn 0.223579 0.387280 0.894406
vn -0.223579 -0.387280 0.894406
vn 0.000000 0.447188 0.894406
vn 0.000000 -0.447188 0.894406
vn -0.223579 0.387280 0.894406
vn 0.000000 0.000000 1.000000
vn 0.223579 -0.387280 0.894406
vn -0.387280 0.223579 0.894406
vn 0.387280 -0.223579 0.894406
usemtl None_heat_stressed.jpg
s 1
f 2/1/1 1/2/2 4/3/3 5/4/1
s 1
f 5/5/1 6/6/4 3/7/5 2/8/1
s 1
f 7/9/6 8/10/1 5/11/1 4/12/3
s 1
f 8/13/1 9/14/7 6/15/4 5/16/1
s 1
f 10/17/8 11/18/1 8/19/1 7/20/6
s 1
f 11/21/1 12/22/9 9/23/7 8/24/1
s 1
f 13/25/10 14/26/11 11/27/1 10/28/8
s 1
f 14/29/11 15/30/12 12/31/9 11/32/1
s 1
f 16/33/13 17/34/1 14/35/11 13/36/10
s 1
f 17/37/1 18/38/14 15/39/12 14/40/11
s 1
f 19/41/5 20/42/11 17/43/1 16/44/13
s 1
f 20/45/11 21/46/2 18/47/14 17/48/1
s 1
f 22/49/4 23/50/11 20/51/11 19/52/5
s 1
f 23/53/11 24/54/3 21/55/2 20/56/11
s 1
f 25/57/7 26/58/11 23/59/11 22/60/4
s 1
f 26/61/11 27/62/6 24/63/3 23/64/11
s 1
f 28/65/9 29/66/1 26/67/11 25/68/7
s 1
f 29/69/1 30/70/8 27/71/6 26/72/11
s 1
f 31/73/12 32/74/1 29/75/1 28/76/9
s 1
f 32/77/1 33/78/10 30/79/8 29/80/1
s 1
f 34/81/14 35/82/1 32/83/1 31/84/12
s 1
f 35/85/1 36/86/13 33/87/10 32/88/1
s 1
f 1/89/2 2/90/1 35/91/1 34/92/14
s 1
f 2/93/1 3/94/5 36/95/13 35/96/1
o Cylinder
v 0.381837 0.381838 0.002500
v 0.139761 0.521600 0.002500
v -0.139763 0.521600 0.002500
v -0.381838 0.381837 0.002500
v -0.521600 0.139761 0.002500
v -0.521600 -0.139763 0.002500
v -0.381837 -0.381838 0.002500
v -0.139762 -0.521600 0.002500
v 0.139763 -0.521600 0.002500
v 0.381838 -0.381837 0.002500
v 0.521600 -0.139762 0.002500
v 0.521600 0.139763 0.002500
v 0.000000 0.000000 0.051083
vt 0.288493 0.322978 0.0
vt 0.576986 0.236791 0.0
vt 0.576828 0.409827 0.0
vt 0.288493 0.322978 0.0
vt 0.576828 0.409827 0.0
vt 0.499411 0.559592 0.0
vt 0.288493 0.322978 0.0
vt 0.499411 0.559592 0.0
vt 0.365478 0.645957 0.0
vt 0.288493 0.322978 0.0
vt 0.365478 0.645957 0.0
vt 0.210917 0.645779 0.0
vt 0.288493 0.322978 0.0
vt 0.210917 0.645779 0.0
vt 0.077143 0.559108 0.0
vt 0.288493 0.322978 0.0
vt 0.077143 0.559108 0.0
vt 0.000000 0.409166 0.0
vt 0.288493 0.322978 0.0
vt 0.000000 0.409166 0.0
vt 0.000158 0.236130 0.0
vt 0.288493 0.322978 0.0
vt 0.000158 0.236130 0.0
vt 0.077576 0.086365 0.0
vt 0.288493 0.322978 0.0
vt 0.077576 0.086365 0.0
vt 0.211508 0.000000 0.0
vt 0.288493 0.322978 0.0
vt 0.211508 0.000000 0.0
vt 0.366069 0.000177 0.0
vt 0.288493 0.322978 0.0
vt 0.366069 0.000177 0.0
vt 0.499843 0.086849 0.0
vt 0.499843 0.086849 0.0
vt 0.576986 0.236791 0.0
vt 0.288493 0.322978 0.0
vn 0.063356 0.063356 0.995972
vn 0.023164 0.086550 0.995972
vn -0.023164 0.086550 0.995972
vn -0.063356 0.063356 0.995972
vn -0.086550 0.023164 0.995972
vn -0.086550 -0.023164 0.995972
vn -0.063356 -0.063356 0.995972
vn -0.023164 -0.086550 0.995972
vn 0.023164 -0.086550 0.995972
vn 0.063356 -0.063356 0.995972
vn 0.086550 -0.023164 0.995972
vn 0.086550 0.023164 0.995972
usemtl None_woodpressed.jpg
s 1
f 49/97/11 37/98/15 38/99/16
s 1
f 49/100/11 38/101/16 39/102/17
s 1
f 49/103/11 39/104/17 40/105/18
s 1
f 49/106/11 40/107/18 41/108/19
s 1
f 49/109/11 41/110/19 42/111/20
s 1
f 49/112/11 42/113/20 43/114/21
s 1
f 49/115/11 43/116/21 44/117/22
s 1
f 49/118/11 44/119/22 45/120/23
s 1
f 49/121/11 45/122/23 46/123/24
s 1
f 49/124/11 46/125/24 47/126/25
s 1
f 49/127/11 47/128/25 48/129/26
s 1
f 48/130/26 37/131/15 49/132/11
