# Exported from Wings 3D 1.4.1
mtllib bed.mtl
o bed
#16 vertices, 14 faces
v -0.50000000 0.55505695 0.50000000
v -0.50000000 0.72690677 0.50000000
v 0.50000000 0.72690677 0.50000000
v 0.50000000 0.55505695 0.50000000
v -0.50000000 0.55505695 -0.50000000
v -0.50000000 0.72690677 -0.50000000
v 0.50000000 0.72690677 -0.50000000
v 0.50000000 0.55505695 -0.50000000
v 0.32100000 0.55505695 0.32100000
v -0.32100000 0.55505695 0.32100000
v -0.32100000 0.55505695 -0.32100000
v 0.32100000 0.55505695 -0.32100000
v 0.32100000 0.25000000 0.32100000
v -0.32100000 0.25000000 0.32100000
v -0.32100000 0.25000000 -0.32100000
v 0.32100000 0.25000000 -0.32100000
vt 0.0000000e+0 0.81022196
vt 0.0000000e+0 0.92568636
vt 1.2490009e-16 0.69475756
vt 7.2222222e-3 5.2735594e-16
vt 7.2222222e-3 0.10541881
vt 7.2222222e-3 0.48391994
vt 7.2222222e-3 0.58933875
vt 7.2222222e-3 0.68262423
vt 0.24299773 0.69475756
vt 0.24299773 0.81022196
vt 0.24299773 0.92568636
vt 0.37142336 0.10541881
vt 0.37142336 0.48391994
vt 0.37142336 0.58933875
vt 0.37142336 0.68262423
vt 0.37850114 0.0000000e+0
vt 0.37850114 0.10122992
vt 0.37850114 0.10541881
vt 0.37850114 0.17317051
vt 0.37850114 0.30867392
vt 0.37850114 0.55167165
vt 0.44625284 0.10541881
vt 0.44625284 0.24092221
vt 0.44625284 0.61942335
vt 0.48599546 0.69475756
vt 0.48599546 0.81022196
vt 0.51400454 0.30867392
vt 0.51400454 0.55167165
vt 0.68925057 0.10541881
vt 0.68925057 0.24092221
vt 0.72899319 0.69475756
vt 0.72899319 0.81022196
vt 0.74559116 4.1633363e-17
vt 0.74559116 0.10122992
vt 0.75700227 0.0000000e+0
vt 0.75700227 0.17317051
vt 0.75700227 0.24299773
vt 1.00000000 0.0000000e+0
vt 1.00000000 0.24299773
vn -0.40824829 -0.81649658 0.40824829
vn -0.57735027 0.57735027 0.57735027
vn 0.57735027 0.57735027 0.57735027
vn 0.40824829 -0.81649658 0.40824829
vn -0.40824829 -0.81649658 -0.40824829
vn -0.57735027 0.57735027 -0.57735027
vn 0.57735027 0.57735027 -0.57735027
vn 0.40824829 -0.81649658 -0.40824829
vn 0.40824829 -0.81649658 0.40824829
vn -0.40824829 -0.81649658 0.40824829
vn -0.40824829 -0.81649658 -0.40824829
vn 0.40824829 -0.81649658 -0.40824829
vn 0.57735027 -0.57735027 0.57735027
vn -0.57735027 -0.57735027 0.57735027
vn -0.57735027 -0.57735027 -0.57735027
vn 0.57735027 -0.57735027 -0.57735027
g bed_bed_auv
usemtl bed_auv
s 1
f 1/16/1 4/33/4 3/34/3 2/17/2
f 1/36/1 10/30/10 9/23/9 4/19/4
f 2/14/2 6/7/6 5/6/5 1/13/1
f 3/12/3 7/13/7 6/6/6 2/5/2
f 4/4/4 8/16/8 7/18/7 3/5/3
f 4/23/4 9/27/9 12/28/12 8/24/8
f 5/24/5 11/21/11 10/20/10 1/23/1
f 6/15/6 7/8/7 8/7/8 5/14/5
f 8/19/8 12/22/12 11/29/11 5/36/5
f 9/2/9 13/1/13 16/10/16 12/11/12
f 10/26/10 14/25/14 13/31/13 9/32/9
f 11/10/11 15/9/15 14/25/14 10/26/10
f 12/1/12 16/3/16 15/9/15 11/10/11
f 14/38/14 15/39/15 16/37/16 13/35/13
