# Exported from Wings 3D 1.4.1
mtllib deposit.mtl
o deposit
#64 vertices, 62 faces
v 0.45000000 1.36412739 -4.3696977e-18
v 0.41574579 1.36412739 0.17220754
v 0.31819805 1.36412739 0.31819805
v 0.17220754 1.36412739 0.41574579
v 1.0551627e-17 1.36412739 0.45000000
v -0.17220754 1.36412739 0.41574579
v -0.31819805 1.36412739 0.31819805
v -0.41574579 1.36412739 0.17220754
v -0.45000000 1.36412739 5.0737588e-17
v -0.41574579 1.36412739 -0.17220754
v -0.31819805 1.36412739 -0.31819805
v -0.17220754 1.36412739 -0.41574579
v -9.9662944e-17 1.36412739 -0.45000000
v 0.17220754 1.36412739 -0.41574579
v 0.31819805 1.36412739 -0.31819805
v 0.41574579 1.36412739 -0.17220754
v 0.45000000 0.25000000 -4.3696977e-18
v 0.41574579 0.25000000 0.17220754
v 0.31819805 0.25000000 0.31819805
v 0.17220754 0.25000000 0.41574579
v 1.0551627e-17 0.25000000 0.45000000
v -0.17220754 0.25000000 0.41574579
v -0.31819805 0.25000000 0.31819805
v -0.41574579 0.25000000 0.17220754
v -0.45000000 0.25000000 5.0737588e-17
v -0.41574579 0.25000000 -0.17220754
v -0.31819805 0.25000000 -0.31819805
v -0.17220754 0.25000000 -0.41574579
v -9.9662944e-17 0.25000000 -0.45000000
v 0.17220754 0.25000000 -0.41574579
v 0.31819805 0.25000000 -0.31819805
v 0.41574579 0.25000000 -0.17220754
v 0.28104415 1.36412739 0.11641230
v 0.30420000 1.36412739 5.9454115e-18
v 0.28104415 1.36412739 -0.11641230
v 0.21510188 1.36412739 -0.21510188
v 0.11641230 1.36412739 -0.28104415
v -6.6654595e-17 1.36412739 -0.30420000
v -0.11641230 1.36412739 -0.28104415
v -0.21510188 1.36412739 -0.21510188
v -0.28104415 1.36412739 -0.11641230
v -0.30420000 1.36412739 1.3603195e-17
v -0.28104415 1.36412739 0.11641230
v -0.21510188 1.36412739 0.21510188
v -0.11641230 1.36412739 0.28104415
v 8.4886056e-18 1.36412739 0.30420000
v 0.11641230 1.36412739 0.28104415
v 0.21510188 1.36412739 0.21510188
v 0.28104415 1.48184300 0.11641230
v 0.30420000 1.48184300 3.5072743e-18
v 0.28104415 1.48184300 -0.11641230
v 0.21510188 1.48184300 -0.21510188
v 0.11641230 1.48184300 -0.28104415
v -6.6654595e-17 1.48184300 -0.30420000
v -0.11641230 1.48184300 -0.28104415
v -0.21510188 1.48184300 -0.21510188
v -0.28104415 1.48184300 -0.11641230
v -0.30420000 1.48184300 1.1165058e-17
v -0.28104415 1.48184300 0.11641230
v -0.21510188 1.48184300 0.21510188
v -0.11641230 1.48184300 0.28104415
v 8.4886056e-18 1.48184300 0.30420000
v 0.11641230 1.48184300 0.28104415
v 0.21510188 1.48184300 0.21510188
vt 0.0000000e+0 1.3877788e-16
vt 0.0000000e+0 0.43848742
vt 1.1102230e-16 0.39185341
vt 2.3314684e-15 0.39658532
vt 2.1088889e-2 0.80870374
vt 3.3282034e-2 0.74740466
vt 3.3282034e-2 0.87000282
vt 4.2250000e-2 0.39658532
vt 4.2250000e-2 0.43848742
vt 6.2500000e-2 2.7755576e-17
vt 6.2500000e-2 0.39185341
vt 6.8005174e-2 0.69543781
vt 6.8005174e-2 0.92196967
vt 7.2987927e-2 0.81071408
vt 8.1230493e-2 0.76927591
vt 8.1230493e-2 0.85215226
vt 8.4500000e-2 0.39658532
vt 8.4500000e-2 0.43848742
vt 0.10470334 0.73414631
vt 0.10470334 0.88728185
vt 0.11997202 0.66071467
vt 0.11997202 0.95669281
vt 0.12500000 1.1102230e-16
vt 0.12500000 0.39185341
vt 0.12675000 0.39658532
vt 0.12675000 0.43848742
vt 0.13983293 0.71067347
vt 0.13983293 0.91075470
vt 0.16900000 0.39658532
vt 0.16900000 0.43848742
vt 0.18127110 0.64852153
vt 0.18127110 0.70243091
vt 0.18127110 0.91899726
vt 0.18127110 0.96888596
vt 0.18750000 2.7755576e-17
vt 0.18750000 0.39185341
vt 0.21125000 0.39658532
vt 0.21125000 0.43848742
vt 0.22270928 0.71067347
vt 0.22270928 0.91075470
vt 0.24257018 0.66071467
vt 0.24257018 0.95669281
vt 0.25000000 1.1102230e-16
vt 0.25000000 0.39185341
vt 0.25350000 0.39658532
vt 0.25350000 0.43848742
vt 0.25783887 0.73414631
vt 0.25783887 0.88728185
vt 0.28131172 0.76927591
vt 0.28131172 0.85215226
vt 0.28955428 0.81071408
vt 0.29453704 0.69543781
vt 0.29453704 0.92196967
vt 0.29575000 0.39658532
vt 0.29575000 0.43848742
vt 0.31250000 2.7755576e-17
vt 0.31250000 0.39185341
vt 0.32036443 0.54677060
vt 0.32860700 0.50533242
vt 0.32860700 0.58820878
vt 0.32926017 0.74740466
vt 0.32926017 0.87000282
vt 0.33800000 0.39658532
vt 0.33800000 0.43848742
vt 0.34145332 0.80870374
vt 0.35207984 0.47020283
vt 0.35207984 0.62333837
vt 0.37500000 1.1102230e-16
vt 0.37500000 0.39185341
vt 0.38025000 0.39658532
vt 0.38025000 0.43848742
vt 0.38720943 0.44672999
vt 0.38720943 0.64681121
vt 0.42250000 0.39658532
vt 0.42250000 0.43848742
vt 0.42864761 0.43848742
vt 0.42864761 0.65505378
vt 0.43750000 5.5511151e-17
vt 0.43750000 0.39185341
vt 0.46475000 0.39658532
vt 0.46475000 0.43848742
vt 0.47008579 0.44672999
vt 0.47008579 0.64681121
vt 0.50000000 1.1102230e-16
vt 0.50000000 0.39185341
vt 0.50521538 0.47020283
vt 0.50521538 0.62333837
vt 0.50700000 0.39658532
vt 0.50700000 0.43848742
vt 0.52868822 0.50533242
vt 0.52868822 0.58820878
vt 0.53693079 0.54677060
vt 0.54925000 0.39658532
vt 0.54925000 0.43848742
vt 0.56250000 1.3877788e-16
vt 0.56250000 0.39185341
vt 0.59150000 0.39658532
vt 0.59150000 0.43848742
vt 0.62500000 1.9428903e-16
vt 0.62500000 0.39185341
vt 0.63375000 0.39658532
vt 0.63375000 0.43848742
vt 0.67600000 0.39658532
vt 0.67600000 0.43848742
vt 0.68750000 1.9428903e-16
vt 0.68750000 0.39185341
vt 0.75000000 1.9428903e-16
vt 0.75000000 0.39185341
vt 0.81250000 1.1102230e-16
vt 0.81250000 0.39185341
vt 0.87500000 2.2204460e-16
vt 0.87500000 0.39185341
vt 0.93750000 5.5511151e-17
vt 0.93750000 0.39185341
vt 1.00000000 1.1102230e-16
vt 1.00000000 0.39185341
vn 0.70021451 0.71393252 0.0000000e+0
vn 0.64691385 0.71393252 0.26796049
vn 0.49512643 0.71393252 0.49512643
vn 0.26796049 0.71393252 0.64691385
vn 0.0000000e+0 0.71393252 0.70021451
vn -0.26796049 0.71393252 0.64691385
vn -0.49512643 0.71393252 0.49512643
vn -0.64691385 0.71393252 0.26796049
vn -0.70021451 0.71393252 4.9539020e-17
vn -0.64691385 0.71393252 -0.26796049
vn -0.49512643 0.71393252 -0.49512643
vn -0.26796049 0.71393252 -0.64691385
vn -8.9170236e-17 0.71393252 -0.70021451
vn 0.26796049 0.71393252 -0.64691385
vn 0.49512643 0.71393252 -0.49512643
vn 0.64691385 0.71393252 -0.26796049
vn 0.89090915 -0.45418155 0.0000000e+0
vn 0.64691385 -0.71393252 0.26796049
vn 0.49512643 -0.71393252 0.49512643
vn 0.26796049 -0.71393252 0.64691385
vn 0.0000000e+0 -0.71393252 0.70021451
vn -0.26796049 -0.71393252 0.64691385
vn -0.49512643 -0.71393252 0.49512643
vn -0.82309273 -0.45418155 0.34093617
vn -0.89090915 -0.45418155 6.3030352e-17
vn -0.64691385 -0.71393252 -0.26796049
vn -0.49512643 -0.71393252 -0.49512643
vn -0.26796049 -0.71393252 -0.64691385
vn -8.9170236e-17 -0.71393252 -0.70021451
vn 0.26796049 -0.71393252 -0.64691385
vn 0.49512643 -0.71393252 -0.49512643
vn 0.82309273 -0.45418155 -0.34093617
vn 0.64691385 0.71393252 0.26796050
vn 0.70021451 0.71393252 0.0000000e+0
vn 0.64691385 0.71393252 -0.26796050
vn 0.49512643 0.71393252 -0.49512643
vn 0.26796050 0.71393252 -0.64691385
vn -7.9262432e-17 0.71393252 -0.70021451
vn -0.26796050 0.71393252 -0.64691385
vn -0.49512643 0.71393252 -0.49512643
vn -0.64691385 0.71393252 -0.26796050
vn -0.70021451 0.71393252 2.9723412e-17
vn -0.64691385 0.71393252 0.26796050
vn -0.49512643 0.71393252 0.49512643
vn -0.26796050 0.71393252 0.64691385
vn 2.9723412e-17 0.71393252 0.70021451
vn 0.26796050 0.71393252 0.64691385
vn 0.49512643 0.71393252 0.49512643
vn 0.82309273 0.45418155 0.34093619
vn 0.89090915 0.45418155 0.0000000e+0
vn 0.64691385 0.71393252 -0.26796050
vn 0.49512643 0.71393252 -0.49512643
vn 0.26796050 0.71393252 -0.64691385
vn -7.9262432e-17 0.71393252 -0.70021451
vn -0.26796050 0.71393252 -0.64691385
vn -0.49512643 0.71393252 -0.49512643
vn -0.82309273 0.45418155 -0.34093619
vn -0.89090915 0.45418155 3.7818211e-17
vn -0.64691385 0.71393252 0.26796050
vn -0.49512643 0.71393252 0.49512643
vn -0.26796050 0.71393252 0.64691385
vn 2.9723412e-17 0.71393252 0.70021451
vn 0.26796050 0.71393252 0.64691385
vn 0.49512643 0.71393252 0.49512643
g deposit_default2
usemtl default2
s 1
f 18//18 31//31 32//32 17//17
f 19//19 30//30 31//31 18//18
f 20//20 29//29 30//30 19//19
f 21//21 28//28 29//29 20//20
f 22//22 27//27 28//28 21//21
f 23//23 26//26 27//27 22//22
f 24//24 25//25 26//26 23//23
g deposit_deposit_auv
usemtl deposit_auv
s 1
f 1/24/1 17/23/17 32/35/32 16/36/16
f 1/65/1 34/51/34 33/49/33 2/61/2
f 2/11/2 18/10/18 17/23/17 1/24/1
f 2/61/2 33/49/33 48/47/48 3/52/3
f 3/3/3 19/1/19 18/10/18 2/11/2
f 3/52/3 48/47/48 47/39/47 4/41/4
f 4/114/4 20/113/20 19/115/19 3/116/3
f 4/41/4 47/39/47 46/32/46 5/31/5
f 5/112/5 21/111/21 20/113/20 4/114/4
f 5/31/5 46/32/46 45/27/45 6/21/6
f 6/110/6 22/109/22 21/111/21 5/112/5
f 6/21/6 45/27/45 44/19/44 7/12/7
f 7/108/7 23/107/23 22/109/22 6/110/6
f 7/12/7 44/19/44 43/15/43 8/6/8
f 8/106/8 24/105/24 23/107/23 7/108/7
f 8/6/8 43/15/43 42/14/42 9/5/9
f 9/100/9 25/99/25 24/105/24 8/106/8
f 9/5/9 42/14/42 41/16/41 10/7/10
f 10/96/10 26/95/26 25/99/25 9/100/9
f 10/7/10 41/16/41 40/20/40 11/13/11
f 11/85/11 27/84/27 26/95/26 10/96/10
f 11/13/11 40/20/40 39/28/39 12/22/12
f 12/79/12 28/78/28 27/84/27 11/85/11
f 12/22/12 39/28/39 38/33/38 13/34/13
f 13/69/13 29/68/29 28/78/28 12/79/12
f 13/34/13 38/33/38 37/40/37 14/42/14
f 14/57/14 30/56/30 29/68/29 13/69/13
f 14/42/14 37/40/37 36/48/36 15/53/15
f 15/44/15 31/43/31 30/56/30 14/57/14
f 15/53/15 36/48/36 35/50/35 16/62/16
f 16/36/16 32/35/32 31/43/31 15/44/15
f 16/62/16 35/50/35 34/51/34 1/65/1
f 33/102/33 49/101/49 64/103/64 48/104/48
f 34/98/34 50/97/50 49/101/49 33/102/33
f 35/94/35 51/93/51 50/97/50 34/98/34
f 36/89/36 52/88/52 51/93/51 35/94/35
f 37/81/37 53/80/53 52/88/52 36/89/36
f 38/75/38 54/74/54 53/80/53 37/81/37
f 39/71/39 55/70/55 54/74/54 38/75/38
f 40/64/40 56/63/56 55/70/55 39/71/39
f 41/55/41 57/54/57 56/63/56 40/64/40
f 42/46/42 58/45/58 57/54/57 41/55/41
f 43/38/43 59/37/59 58/45/58 42/46/42
f 44/30/44 60/29/60 59/37/59 43/38/43
f 45/26/45 61/25/61 60/29/60 44/30/44
f 46/18/46 62/17/62 61/25/61 45/26/45
f 47/9/47 63/8/63 62/17/62 46/18/46
f 48/2/48 64/4/64 63/8/63 47/9/47
f 50/92/50 51/91/51 64/86/64 49/90/49
f 52/87/52 63/82/63 64/86/64 51/91/51
f 53/83/53 62/76/62 63/82/63 52/87/52
f 54/77/54 61/72/61 62/76/62 53/83/53
f 55/73/55 60/66/60 61/72/61 54/77/54
f 56/67/56 59/59/59 60/66/60 55/73/55
f 57/60/57 58/58/58 59/59/59 56/67/56
