# Exported from Wings 3D 1.4.1
mtllib floor2.mtl
o floor
#8 vertices, 6 faces
v -0.50000000 0.0000000e+0 0.50000000
v -0.50000000 0.25000000 0.50000000
v 0.50000000 0.25000000 0.50000000
v 0.50000000 0.0000000e+0 0.50000000
v -0.50000000 0.0000000e+0 -0.50000000
v -0.50000000 0.25000000 -0.50000000
v 0.50000000 0.25000000 -0.50000000
v 0.50000000 0.0000000e+0 -0.50000000
vt 4.1633363e-17 0.16899780
vt 6.3837824e-16 0.83100220
vt 0.16899780 3.6082248e-16
vt 0.16899780 0.16899780
vt 0.16899780 0.83100220
vt 0.16899780 1.00000000
vt 0.83100220 1.6653345e-16
vt 0.83100220 0.16899780
vt 0.83100220 0.83100220
vt 0.83100220 1.00000000
vt 1.00000000 0.16899780
vt 1.00000000 0.83100220
vn -0.57735027 -0.57735027 0.57735027
vn -0.57735027 0.57735027 0.57735027
vn 0.57735027 0.57735027 0.57735027
vn 0.57735027 -0.57735027 0.57735027
vn -0.57735027 -0.57735027 -0.57735027
vn -0.57735027 0.57735027 -0.57735027
vn 0.57735027 0.57735027 -0.57735027
vn 0.57735027 -0.57735027 -0.57735027
g floor_default
usemtl default
s 1
f 1//1 5//5 8//8 4//4
g floor_floor_auv
usemtl floor_auv
s 1
f 1/11/1 4/12/4 3/9/3 2/8/2
f 2/8/2 6/4/6 5/3/5 1/7/1
f 3/9/3 7/5/7 6/4/6 2/8/2
f 4/10/4 8/6/8 7/5/7 3/9/3
f 6/4/6 7/5/7 8/2/8 5/1/5
