# Exported from Wings 3D 1.4.1
mtllib keypad.mtl
o keypad
#8 vertices, 6 faces
v -0.10000000 0.68512230 0.54835812
v -0.10000000 0.91792230 0.54835812
v 0.10000000 0.91792230 0.54835812
v 0.10000000 0.68512230 0.54835812
v -0.10000000 0.68512230 0.42935812
v -0.10000000 0.91792230 0.42935812
v 0.10000000 0.91792230 0.42935812
v 0.10000000 0.68512230 0.42935812
vt 5.1221210e-2 0.73852900
vt 5.1221210e-2 0.26147100
vt 0.29507818 1.7614031e-2
vt 0.29507818 0.26147100
vt 0.29507818 0.73852900
vt 0.29507818 0.98238597
vt 0.70492182 1.7614031e-2
vt 0.70492182 0.26147100
vt 0.70492182 0.73852900
vt 0.70492182 0.98238597
vt 0.94877879 0.26147100
vt 0.94877879 0.73852900
vn -0.57735027 -0.57735027 0.57735027
vn -0.57735027 0.57735027 0.57735027
vn 0.57735027 0.57735027 0.57735027
vn 0.57735027 -0.57735027 0.57735027
vn -0.57735027 -0.57735027 -0.57735027
vn -0.57735027 0.57735027 -0.57735027
vn 0.57735027 0.57735027 -0.57735027
vn 0.57735027 -0.57735027 -0.57735027
g keypad_default
usemtl default
s 1
f 6//6 7//7 8//8 5//5
g keypad_keypad_auv
usemtl keypad_auv
s 1
f 1/4/1 4/8/4 3/9/3 2/5/2
f 1/4/1 5/3/5 8/7/8 4/8/4
f 2/5/2 6/1/6 5/2/5 1/4/1
f 3/9/3 7/10/7 6/6/6 2/5/2
f 4/8/4 8/11/8 7/12/7 3/9/3
