# Exported from Wings 3D 1.4.1
mtllib medical.mtl
o medical
#112 vertices, 110 faces
v 0.45000000 0.49374842 -5.1695483e-17
v 0.41574579 0.49374842 0.17220754
v 0.31819805 0.49374842 0.31819805
v 0.17220754 0.49374842 0.41574579
v 2.5111777e-17 0.49374842 0.45000000
v -0.17220754 0.49374842 0.41574579
v -0.31819805 0.49374842 0.31819805
v -0.41574579 0.49374842 0.17220754
v -0.45000000 0.49374842 3.4118031e-18
v -0.41574579 0.49374842 -0.17220754
v -0.31819805 0.49374842 -0.31819805
v -0.17220754 0.49374842 -0.41574579
v -8.5102795e-17 0.49374842 -0.45000000
v 0.17220754 0.49374842 -0.41574579
v 0.31819805 0.49374842 -0.31819805
v 0.41574579 0.49374842 -0.17220754
v 0.45000000 0.25000000 -5.1695483e-17
v 0.41574579 0.25000000 0.17220754
v 0.31819805 0.25000000 0.31819805
v 0.17220754 0.25000000 0.41574579
v 2.5111777e-17 0.25000000 0.45000000
v -0.17220754 0.25000000 0.41574579
v -0.31819805 0.25000000 0.31819805
v -0.41574579 0.25000000 0.17220754
v -0.45000000 0.25000000 3.4118031e-18
v -0.41574579 0.25000000 -0.17220754
v -0.31819805 0.25000000 -0.31819805
v -0.17220754 0.25000000 -0.41574579
v -8.5102795e-17 0.25000000 -0.45000000
v 0.17220754 0.25000000 -0.41574579
v 0.31819805 0.25000000 -0.31819805
v 0.41574579 0.25000000 -0.17220754
v 0.30848338 0.49374842 0.12777800
v 0.33390000 0.49374842 -3.5267716e-17
v 0.30848338 0.49374842 -0.12777800
v 0.23610295 0.49374842 -0.23610295
v 0.12777800 0.49374842 -0.30848338
v -6.7032252e-17 0.49374842 -0.33390000
v -0.12777800 0.49374842 -0.30848338
v -0.23610295 0.49374842 -0.23610295
v -0.30848338 0.49374842 -0.12777800
v -0.33390000 0.49374842 -1.1373187e-17
v -0.30848338 0.49374842 0.12777800
v -0.23610295 0.49374842 0.23610295
v -0.12777800 0.49374842 0.30848338
v 2.5111777e-17 0.49374842 0.33390000
v 0.12777800 0.49374842 0.30848338
v 0.23610295 0.49374842 0.23610295
v 0.30848338 1.00000000 0.12777800
v 0.33390000 1.00000000 -2.8753397e-17
v 0.30848338 1.00000000 -0.12777800
v 0.23610295 1.00000000 -0.23610295
v 0.12777800 1.00000000 -0.30848338
v -6.7032252e-17 1.00000000 -0.33390000
v -0.12777800 1.00000000 -0.30848338
v -0.23610295 1.00000000 -0.23610295
v -0.30848338 1.00000000 -0.12777800
v -0.33390000 1.00000000 -4.8588672e-18
v -0.30848338 1.00000000 0.12777800
v -0.23610295 1.00000000 0.23610295
v -0.12777800 1.00000000 0.30848338
v 2.5111777e-17 1.00000000 0.33390000
v 0.12777800 1.00000000 0.30848338
v 0.23610295 1.00000000 0.23610295
v 0.45000000 1.50625158 1.0912660e-17
v 0.41574579 1.50625158 0.17220754
v 0.31819805 1.50625158 0.31819805
v 0.17220754 1.50625158 0.41574579
v 2.5111777e-17 1.50625158 0.45000000
v -0.17220754 1.50625158 0.41574579
v -0.31819805 1.50625158 0.31819805
v -0.41574579 1.50625158 0.17220754
v -0.45000000 1.50625158 6.6019946e-17
v -0.41574579 1.50625158 -0.17220754
v -0.31819805 1.50625158 -0.31819805
v -0.17220754 1.50625158 -0.41574579
v -8.5102795e-17 1.50625158 -0.45000000
v 0.17220754 1.50625158 -0.41574579
v 0.31819805 1.50625158 -0.31819805
v 0.41574579 1.50625158 -0.17220754
v 0.45000000 1.75000000 4.1057032e-17
v 0.41574579 1.75000000 0.17220754
v 0.31819805 1.75000000 0.31819805
v 0.17220754 1.75000000 0.41574579
v 2.5111777e-17 1.75000000 0.45000000
v -0.17220754 1.75000000 0.41574579
v -0.31819805 1.75000000 0.31819805
v -0.41574579 1.75000000 0.17220754
v -0.45000000 1.75000000 9.6164318e-17
v -0.41574579 1.75000000 -0.17220754
v -0.31819805 1.75000000 -0.31819805
v -0.17220754 1.75000000 -0.41574579
v -8.5102795e-17 1.75000000 -0.45000000
v 0.17220754 1.75000000 -0.41574579
v 0.31819805 1.75000000 -0.31819805
v 0.41574579 1.75000000 -0.17220754
v 0.30848338 1.50625158 0.12777800
v 0.33390000 1.50625158 2.7340427e-17
v 0.30848338 1.50625158 -0.12777800
v 0.23610295 1.50625158 -0.23610295
v 0.12777800 1.50625158 -0.30848338
v -6.7032252e-17 1.50625158 -0.33390000
v -0.12777800 1.50625158 -0.30848338
v -0.23610295 1.50625158 -0.23610295
v -0.30848338 1.50625158 -0.12777800
v -0.33390000 1.50625158 5.1234957e-17
v -0.30848338 1.50625158 0.12777800
v -0.23610295 1.50625158 0.23610295
v -0.12777800 1.50625158 0.30848338
v 2.5111777e-17 1.50625158 0.33390000
v 0.12777800 1.50625158 0.30848338
v 0.23610295 1.50625158 0.23610295
vt 5.2000000e-3 0.12541814
vt 5.2000000e-3 5.5775739e-2
vt 6.2111111e-3 2.2966667e-2
vt 6.2111111e-3 9.2609072e-2
vt 2.0511111e-2 0.60984921
vt 2.0511111e-2 0.32056259
vt 2.0511111e-2 0.46520590
vt 3.9288889e-2 0.83605397
vt 5.0163241e-2 0.78138491
vt 5.0163241e-2 0.89072303
vt 6.0940092e-2 0.12541814
vt 6.0940092e-2 5.5775739e-2
vt 6.1870259e-2 0.46520590
vt 6.1870259e-2 0.60984921
vt 6.1870259e-2 0.32056259
vt 6.1951203e-2 2.2966667e-2
vt 6.1951203e-2 9.2609072e-2
vt 7.6146032e-2 0.83605397
vt 8.1130777e-2 0.73503871
vt 8.1130777e-2 0.93706922
vt 8.4214801e-2 0.87661841
vt 8.4214801e-2 0.79548952
vt 0.10322941 0.60984921
vt 0.10322941 0.46520590
vt 0.10322941 0.32056259
vt 0.10719271 0.76110065
vt 0.10719271 0.91100729
vt 0.11668018 0.12541814
vt 0.11668018 5.5775739e-2
vt 0.11769130 9.2609072e-2
vt 0.11769130 2.2966667e-2
vt 0.12747697 0.70407118
vt 0.12747697 0.96803676
vt 0.14158159 0.73812274
vt 0.14158159 0.93398520
vt 0.14458856 0.60984921
vt 0.14458856 0.46520590
vt 0.14458856 0.32056259
vt 0.17242028 0.12541814
vt 0.17242028 5.5775739e-2
vt 0.17343139 2.2966667e-2
vt 0.17343139 9.2609072e-2
vt 0.18214603 0.69319683
vt 0.18214603 0.73005397
vt 0.18214603 0.97891111
vt 0.18214603 0.94205397
vt 0.18594770 0.60984921
vt 0.18594770 0.32056259
vt 0.18594770 0.46520590
vt 0.22271048 0.73812274
vt 0.22271048 0.93398520
vt 0.22730685 0.60984921
vt 0.22730685 0.46520590
vt 0.22730685 0.32056259
vt 0.22816037 0.12541814
vt 0.22816037 5.5775739e-2
vt 0.22917148 9.2609072e-2
vt 0.22917148 2.2966667e-2
vt 0.23681509 0.70407118
vt 0.23681509 0.96803676
vt 0.24194762 0.83836508
vt 0.25282197 0.78369602
vt 0.25282197 0.89303414
vt 0.25709935 0.76110065
vt 0.25709935 0.91100729
vt 0.26866600 0.60984921
vt 0.26866600 0.32056259
vt 0.26866600 0.46520590
vt 0.28007726 0.87661841
vt 0.28007726 0.79548952
vt 0.28316129 0.73503871
vt 0.28316129 0.93706922
vt 0.28378951 0.93938033
vt 0.28378951 0.73734982
vt 0.28390046 5.5775739e-2
vt 0.28390046 0.12541814
vt 0.28491157 9.2609072e-2
vt 0.28491157 2.2966667e-2
vt 0.28814603 0.83605397
vt 0.31002515 0.60984921
vt 0.31002515 0.46520590
vt 0.31002515 0.32056259
vt 0.31412882 0.78138491
vt 0.31412882 0.89072303
vt 0.32500317 0.83605397
vt 0.33013570 0.97034787
vt 0.33013570 0.70638229
vt 0.33964055 5.5775739e-2
vt 0.33964055 0.12541814
vt 0.34065166 2.2966667e-2
vt 0.34065166 9.2609072e-2
vt 0.35138430 0.60984921
vt 0.35138430 0.46520590
vt 0.35138430 0.32056259
vt 0.38480476 0.69550794
vt 0.38480476 0.98122222
vt 0.39274345 0.46520590
vt 0.39274345 0.60984921
vt 0.39274345 0.32056259
vt 0.39538064 0.12541814
vt 0.39538064 5.5775739e-2
vt 0.39639176 9.2609072e-2
vt 0.39639176 2.2966667e-2
vt 0.43410259 0.46520590
vt 0.43410259 0.60984921
vt 0.43410259 0.32056259
vt 0.43947382 0.97034787
vt 0.43947382 0.70638229
vt 0.45112074 0.12541814
vt 0.45112074 5.5775739e-2
vt 0.45213185 2.2966667e-2
vt 0.45213185 9.2609072e-2
vt 0.47546174 0.46520590
vt 0.47546174 0.60984921
vt 0.47546174 0.32056259
vt 0.48582002 0.93938033
vt 0.48582002 0.73734982
vt 0.50686083 5.5775739e-2
vt 0.50686083 0.12541814
vt 0.50787194 9.2609072e-2
vt 0.50787194 2.2966667e-2
vt 0.51678755 0.89303414
vt 0.51678755 0.78369602
vt 0.51682089 0.32056259
vt 0.51682089 0.46520590
vt 0.51682089 0.60984921
vt 0.52766190 0.83836508
vt 0.55818004 0.60984921
vt 0.55818004 0.46520590
vt 0.55818004 0.32056259
vt 0.56260092 0.12541814
vt 0.56260092 5.5775739e-2
vt 0.56361203 2.2966667e-2
vt 0.56361203 9.2609072e-2
vt 0.57792222 0.85728413
vt 0.58879657 0.91195319
vt 0.58879657 0.80261507
vt 0.59953919 0.60984921
vt 0.59953919 0.32056259
vt 0.59953919 0.46520590
vt 0.61477937 0.85728413
vt 0.61834101 0.12541814
vt 0.61834101 5.5775739e-2
vt 0.61935212 2.2966667e-2
vt 0.61935212 9.2609072e-2
vt 0.61976411 0.95829938
vt 0.61976411 0.75626887
vt 0.62284813 0.89784857
vt 0.62284813 0.81671968
vt 0.64089834 0.32056259
vt 0.64089834 0.46520590
vt 0.64089834 0.60984921
vt 0.64582605 0.93223745
vt 0.64582605 0.78233081
vt 0.66611030 0.98926692
vt 0.66611030 0.72530134
vt 0.67408110 0.12541814
vt 0.67408110 5.5775739e-2
vt 0.67509222 9.2609072e-2
vt 0.67509222 2.2966667e-2
vt 0.68021492 0.95521536
vt 0.68021492 0.75935290
vt 0.68225748 0.32056259
vt 0.68225748 0.46520590
vt 0.68225748 0.60984921
vt 0.72077937 1.00014127
vt 0.72077937 0.96328413
vt 0.72077937 0.75128413
vt 0.72077937 0.71442698
vt 0.72982120 5.5775739e-2
vt 0.72982120 0.12541814
vt 0.73083231 9.2609072e-2
vt 0.73083231 2.2966667e-2
vt 0.76134381 0.95521536
vt 0.76134381 0.75935290
vt 0.77544843 0.98926692
vt 0.77544843 0.72530134
vt 0.78556129 5.5775739e-2
vt 0.78556129 0.12541814
vt 0.78657240 9.2609072e-2
vt 0.78657240 2.2966667e-2
vt 0.79573268 0.93223745
vt 0.79573268 0.78233081
vt 0.81871060 0.89784857
vt 0.81871060 0.81671968
vt 0.82179462 0.75626887
vt 0.82179462 0.95829938
vt 0.82677937 0.85728413
vt 0.84130138 0.12541814
vt 0.84130138 5.5775739e-2
vt 0.84231249 2.2966667e-2
vt 0.84231249 9.2609072e-2
vt 0.85276216 0.91195319
vt 0.85276216 0.80261507
vt 0.86363651 0.85728413
vt 0.89704147 0.12541814
vt 0.89704147 5.5775739e-2
vt 0.89805258 2.2966667e-2
vt 0.89805258 9.2609072e-2
vn 0.70021451 0.71393252 -1.9815608e-17
vn 0.64691385 0.71393252 0.26796049
vn 0.49512643 0.71393252 0.49512643
vn 0.26796049 0.71393252 0.64691385
vn 0.0000000e+0 0.71393252 0.70021451
vn -0.26796049 0.71393252 0.64691385
vn -0.49512643 0.71393252 0.49512643
vn -0.64691385 0.71393252 0.26796049
vn -0.70021451 0.71393252 9.9078040e-17
vn -0.64691385 0.71393252 -0.26796049
vn -0.49512643 0.71393252 -0.49512643
vn -0.26796049 0.71393252 -0.64691385
vn -1.1889365e-16 0.71393252 -0.70021451
vn 0.26796049 0.71393252 -0.64691385
vn 0.49512643 0.71393252 -0.49512643
vn 0.64691385 0.71393252 -0.26796049
vn 0.89090915 -0.45418155 -2.5212141e-17
vn 0.64691385 -0.71393252 0.26796049
vn 0.49512643 -0.71393252 0.49512643
vn 0.26796049 -0.71393252 0.64691385
vn 0.0000000e+0 -0.71393252 0.70021451
vn -0.26796049 -0.71393252 0.64691385
vn -0.49512643 -0.71393252 0.49512643
vn -0.82309273 -0.45418155 0.34093617
vn -0.89090915 -0.45418155 1.2606070e-16
vn -0.64691385 -0.71393252 -0.26796049
vn -0.49512643 -0.71393252 -0.49512643
vn -0.26796049 -0.71393252 -0.64691385
vn -1.1889365e-16 -0.71393252 -0.70021451
vn 0.26796049 -0.71393252 -0.64691385
vn 0.49512643 -0.71393252 -0.49512643
vn 0.82309273 -0.45418155 -0.34093617
vn 0.64691385 0.71393252 0.26796049
vn 0.70021451 0.71393252 -1.7834047e-16
vn 0.64691385 0.71393252 -0.26796049
vn 0.49512643 0.71393252 -0.49512643
vn 0.26796049 0.71393252 -0.64691385
vn -1.1889365e-16 0.71393252 -0.70021451
vn -0.26796049 0.71393252 -0.64691385
vn -0.49512643 0.71393252 -0.49512643
vn -0.64691385 0.71393252 -0.26796049
vn -0.70021451 0.71393252 1.9815608e-17
vn -0.64691385 0.71393252 0.26796049
vn -0.49512643 0.71393252 0.49512643
vn -0.26796049 0.71393252 0.64691385
vn 9.9078040e-18 0.71393252 0.70021451
vn 0.26796049 0.71393252 0.64691385
vn 0.49512643 0.71393252 0.49512643
vn 0.92387953 -2.0950665e-17 0.38268343
vn 1.00000000 -8.3802660e-19 -2.2639472e-16
vn 0.92387953 1.6760532e-17 -0.38268343
vn 0.70710678 5.3633703e-17 -0.70710678
vn 0.38268343 9.5535033e-17 -0.92387953
vn -1.6979604e-16 1.1061951e-16 -1.00000000
vn -0.38268343 1.0223925e-16 -0.92387953
vn -0.70710678 6.3690022e-17 -0.70710678
vn -0.92387953 2.0950665e-17 -0.38268343
vn -1.00000000 -8.3802660e-19 3.5374174e-17
vn -0.92387953 -2.1788692e-17 0.38268343
vn -0.70710678 -6.0337915e-17 0.70710678
vn -0.38268343 -9.8887139e-17 0.92387953
vn 2.1224505e-17 -1.0978148e-16 1.00000000
vn 0.38268343 -1.0140122e-16 0.92387953
vn 0.70710678 -6.3690022e-17 0.70710678
vn 0.70021451 -0.71393252 -9.9078040e-18
vn 0.64691385 -0.71393252 0.26796049
vn 0.49512643 -0.71393252 0.49512643
vn 0.26796049 -0.71393252 0.64691385
vn 0.0000000e+0 -0.71393252 0.70021451
vn -0.26796049 -0.71393252 0.64691385
vn -0.49512643 -0.71393252 0.49512643
vn -0.64691385 -0.71393252 0.26796049
vn -0.70021451 -0.71393252 1.1889365e-16
vn -0.64691385 -0.71393252 -0.26796049
vn -0.49512643 -0.71393252 -0.49512643
vn -0.26796049 -0.71393252 -0.64691385
vn -1.0898584e-16 -0.71393252 -0.70021451
vn 0.26796049 -0.71393252 -0.64691385
vn 0.49512643 -0.71393252 -0.49512643
vn 0.64691385 -0.71393252 -0.26796049
vn 0.89090915 0.45418155 -1.2606070e-17
vn 0.82309273 0.45418155 0.34093617
vn 0.49512643 0.71393252 0.49512643
vn 0.26796049 0.71393252 0.64691385
vn 0.0000000e+0 0.71393252 0.70021451
vn -0.26796049 0.71393252 0.64691385
vn -0.49512643 0.71393252 0.49512643
vn -0.64691385 0.71393252 0.26796049
vn -0.89090915 0.45418155 1.5127284e-16
vn -0.82309273 0.45418155 -0.34093617
vn -0.49512643 0.71393252 -0.49512643
vn -0.26796049 0.71393252 -0.64691385
vn -1.0898584e-16 0.71393252 -0.70021451
vn 0.26796049 0.71393252 -0.64691385
vn 0.49512643 0.71393252 -0.49512643
vn 0.64691385 0.71393252 -0.26796049
vn 0.64691385 -0.71393252 0.26796049
vn 0.70021451 -0.71393252 -1.3870926e-16
vn 0.64691385 -0.71393252 -0.26796049
vn 0.49512643 -0.71393252 -0.49512643
vn 0.26796049 -0.71393252 -0.64691385
vn -1.1889365e-16 -0.71393252 -0.70021451
vn -0.26796049 -0.71393252 -0.64691385
vn -0.49512643 -0.71393252 -0.49512643
vn -0.64691385 -0.71393252 -0.26796049
vn -0.70021451 -0.71393252 2.9723412e-17
vn -0.64691385 -0.71393252 0.26796049
vn -0.49512643 -0.71393252 0.49512643
vn -0.26796049 -0.71393252 0.64691385
vn 1.9815608e-17 -0.71393252 0.70021451
vn 0.26796049 -0.71393252 0.64691385
vn 0.49512643 -0.71393252 0.49512643
g medical_default
usemtl default
s 1
f 18//18 31//31 32//32 17//17
f 19//19 30//30 31//31 18//18
f 20//20 29//29 30//30 19//19
f 21//21 28//28 29//29 20//20
f 22//22 27//27 28//28 21//21
f 23//23 26//26 27//27 22//22
f 24//24 25//25 26//26 23//23
g medical_medical_auv
usemtl medical_auv
s 1
f 1/39/1 17/40/17 32/56/32 16/55/16
f 1/195/1 34/188/34 33/185/33 2/194/2
f 2/28/2 18/29/18 17/40/17 1/39/1
f 2/194/2 33/185/33 48/183/48 3/186/3
f 3/11/3 19/12/19 18/29/18 2/28/2
f 3/186/3 48/183/48 47/175/47 4/177/4
f 4/1/4 20/2/20 19/12/19 3/11/3
f 4/177/4 47/175/47 46/168/46 5/169/5
f 5/189/5 21/190/21 20/197/20 4/196/4
f 5/169/5 46/168/46 45/162/45 6/156/6
f 6/179/6 22/178/22 21/190/21 5/189/5
f 6/156/6 45/162/45 44/154/44 7/147/7
f 7/171/7 23/170/23 22/178/22 6/179/6
f 7/147/7 44/154/44 43/149/43 8/137/8
f 8/157/8 24/158/24 23/170/23 7/171/7
f 8/137/8 43/149/43 42/141/42 9/135/9
f 9/142/9 25/143/25 24/158/24 8/157/8
f 9/135/9 42/141/42 41/148/41 10/136/10
f 10/131/10 26/132/26 25/143/25 9/142/9
f 10/136/10 41/148/41 40/153/40 11/146/11
f 11/119/11 27/118/27 26/132/26 10/131/10
f 11/146/11 40/153/40 39/161/39 12/155/12
f 12/109/12 28/110/28 27/118/27 11/119/11
f 12/155/12 39/161/39 38/167/38 13/166/13
f 13/100/13 29/101/29 28/110/28 12/109/12
f 13/166/13 38/167/38 37/174/37 14/176/14
f 14/89/14 30/88/30 29/101/29 13/100/13
f 14/176/14 37/174/37 36/182/36 15/187/15
f 15/76/15 31/75/31 30/88/30 14/89/14
f 15/187/15 36/182/36 35/184/35 16/193/16
f 16/55/16 32/56/32 31/75/31 15/76/15
f 16/193/16 35/184/35 34/188/34 1/195/1
f 33/25/33 49/24/49 64/13/64 48/15/48
f 34/38/34 50/37/50 49/24/49 33/25/33
f 35/48/35 51/49/51 50/37/50 34/38/34
f 36/54/36 52/53/52 51/49/51 35/48/35
f 37/67/37 53/68/53 52/53/52 36/54/36
f 38/82/38 54/81/54 53/68/53 37/67/37
f 39/94/39 55/93/55 54/81/54 38/82/38
f 40/99/40 56/97/56 55/93/55 39/94/39
f 41/106/41 57/104/57 56/97/56 40/99/40
f 42/115/42 58/113/58 57/104/57 41/106/41
f 43/124/43 59/125/59 58/113/58 42/115/42
f 44/130/44 60/129/60 59/125/59 43/124/43
f 45/139/45 61/140/61 60/129/60 44/130/44
f 46/150/46 62/151/62 61/140/61 45/139/45
f 47/163/47 63/164/63 62/151/62 46/150/46
f 48/15/48 64/13/64 63/7/63 47/6/47
f 49/24/49 97/23/97 112/14/112 64/13/64
f 50/37/50 98/36/98 97/23/97 49/24/49
f 51/49/51 99/47/99 98/36/98 50/37/50
f 52/53/52 100/52/100 99/47/99 51/49/51
f 53/68/53 101/66/101 100/52/100 52/53/52
f 54/81/54 102/80/102 101/66/101 53/68/53
f 55/93/55 103/92/103 102/80/102 54/81/54
f 56/97/56 104/98/104 103/92/103 55/93/55
f 57/104/57 105/105/105 104/98/104 56/97/56
f 58/113/58 106/114/106 105/105/105 57/104/57
f 59/125/59 107/126/107 106/114/106 58/113/58
f 60/129/60 108/128/108 107/126/107 59/125/59
f 61/140/61 109/138/109 108/128/108 60/129/60
f 62/151/62 110/152/110 109/138/109 61/140/61
f 63/164/63 111/165/111 110/152/110 62/151/62
f 64/13/64 112/14/112 111/5/111 63/7/63
f 65/172/65 81/173/81 82/181/82 66/180/66
f 65/8/65 98/18/98 99/21/99 80/10/80
f 66/180/66 82/181/82 83/191/83 67/192/67
f 66/9/66 97/22/97 98/18/98 65/8/65
f 67/192/67 83/191/83 84/198/84 68/199/68
f 67/19/67 112/26/112 97/22/97 66/9/66
f 68/4/68 84/3/84 85/16/85 69/17/69
f 68/32/68 111/34/111 112/26/112 67/19/67
f 69/17/69 85/16/85 86/31/86 70/30/70
f 69/43/69 110/44/110 111/34/111 68/32/68
f 70/30/70 86/31/86 87/41/87 71/42/71
f 70/59/70 109/50/109 110/44/110 69/43/69
f 71/42/71 87/41/87 88/58/88 72/57/72
f 71/71/71 108/64/108 109/50/109 70/59/70
f 72/57/72 88/58/88 89/78/89 73/77/73
f 72/83/72 107/70/107 108/64/108 71/71/71
f 73/77/73 89/78/89 90/90/90 74/91/74
f 73/85/73 106/79/106 107/70/107 72/83/72
f 74/91/74 90/90/90 91/103/91 75/102/75
f 74/84/74 105/69/105 106/79/106 73/85/73
f 75/102/75 91/103/91 92/111/92 76/112/76
f 75/72/75 104/65/104 105/69/105 74/84/74
f 76/112/76 92/111/92 93/121/93 77/120/77
f 76/60/76 103/51/103 104/65/104 75/72/75
f 77/120/77 93/121/93 94/133/94 78/134/78
f 77/45/77 102/46/102 103/51/103 76/60/76
f 78/134/78 94/133/94 95/144/95 79/145/79
f 78/33/78 101/35/101 102/46/102 77/45/77
f 79/145/79 95/144/95 96/160/96 80/159/80
f 79/20/79 100/27/100 101/35/101 78/33/78
f 80/159/80 96/160/96 81/173/81 65/172/65
f 80/10/80 99/21/99 100/27/100 79/20/79
f 81/127/81 96/122/96 83/117/83 82/123/82
f 83/117/83 96/122/96 95/116/95 84/108/84
f 84/108/84 95/116/95 94/107/94 85/95/85
f 85/95/85 94/107/94 93/96/93 86/87/86
f 86/87/86 93/96/93 92/86/92 87/74/87
f 87/74/87 92/86/92 91/73/91 88/62/88
f 88/62/88 91/73/91 90/63/90 89/61/89
