# Exported from Wings 3D 1.4.1
mtllib table.mtl
o table
#16 vertices, 14 faces
v -0.50000000 0.55505695 0.50000000
v -0.50000000 0.83357344 0.50000000
v 0.50000000 0.83357344 0.50000000
v 0.50000000 0.55505695 0.50000000
v -0.50000000 0.55505695 -0.50000000
v -0.50000000 0.83357344 -0.50000000
v 0.50000000 0.83357344 -0.50000000
v 0.50000000 0.55505695 -0.50000000
v 0.32100000 0.55505695 0.32100000
v -0.32100000 0.55505695 0.32100000
v -0.32100000 0.55505695 -0.32100000
v 0.32100000 0.55505695 -0.32100000
v 0.32100000 0.25000000 0.32100000
v -0.32100000 0.25000000 0.32100000
v -0.32100000 0.25000000 -0.32100000
v 0.32100000 0.25000000 -0.32100000
vt 0.0000000e+0 0.81022196
vt 0.0000000e+0 0.92568636
vt 1.2490009e-16 0.69475756
vt 7.2222222e-3 5.2735594e-16
vt 7.2222222e-3 0.48391994
vt 7.2222222e-3 0.58933875
vt 7.2222222e-3 0.58933875
vt 7.2222222e-3 0.10541881
vt 7.2222222e-3 0.68262423
vt 7.2222222e-3 0.10541881
vt 0.24299773 0.69475756
vt 0.24299773 0.81022196
vt 0.24299773 0.92568636
vt 0.37142336 0.10541881
vt 0.37142336 0.48391994
vt 0.37142336 0.58933875
vt 0.37142336 0.68262423
vt 0.37850114 0.0000000e+0
vt 0.37850114 0.10122992
vt 0.37850114 0.10541881
vt 0.37850114 0.17317051
vt 0.37850114 0.30867392
vt 0.37850114 0.55167165
vt 0.44625284 0.10541881
vt 0.44625284 0.24092221
vt 0.44625284 0.61942335
vt 0.48599546 0.69475756
vt 0.48599546 0.81022196
vt 0.51400454 0.30867392
vt 0.51400454 0.55167165
vt 0.68925057 0.10541881
vt 0.68925057 0.24092221
vt 0.72899319 0.69475756
vt 0.72899319 0.81022196
vt 0.74559116 4.1633363e-17
vt 0.74559116 0.10122992
vt 0.75700227 0.0000000e+0
vt 0.75700227 0.17317051
vt 0.75700227 0.24299773
vt 1.00000000 0.0000000e+0
vt 1.00000000 0.24299773
vn -0.40824829 -0.81649658 0.40824829
vn -0.57735027 0.57735027 0.57735027
vn 0.57735027 0.57735027 0.57735027
vn 0.40824829 -0.81649658 0.40824829
vn -0.40824829 -0.81649658 -0.40824829
vn -0.57735027 0.57735027 -0.57735027
vn 0.57735027 0.57735027 -0.57735027
vn 0.40824829 -0.81649658 -0.40824829
vn 0.40824829 -0.81649658 0.40824829
vn -0.40824829 -0.81649658 0.40824829
vn -0.40824829 -0.81649658 -0.40824829
vn 0.40824829 -0.81649658 -0.40824829
vn 0.57735027 -0.57735027 0.57735027
vn -0.57735027 -0.57735027 0.57735027
vn -0.57735027 -0.57735027 -0.57735027
vn 0.57735027 -0.57735027 -0.57735027
g table_table_auv
usemtl table_auv
s 1
f 1/18/1 4/35/4 3/36/3 2/19/2
f 1/38/1 10/32/10 9/25/9 4/21/4
f 2/16/2 6/7/6 5/5/5 1/15/1
f 3/14/3 7/15/7 6/5/6 2/8/2
f 4/4/4 8/18/8 7/20/7 3/10/3
f 4/25/4 9/29/9 12/30/12 8/26/8
f 5/26/5 11/23/11 10/22/10 1/25/1
f 6/17/6 7/9/7 8/6/8 5/16/5
f 8/21/8 12/24/12 11/31/11 5/38/5
f 9/2/9 13/1/13 16/12/16 12/13/12
f 10/28/10 14/27/14 13/33/13 9/34/9
f 11/12/11 15/11/15 14/27/14 10/28/10
f 12/1/12 16/3/16 15/11/15 11/12/11
f 14/40/14 15/41/15 16/39/16 13/37/13
