# Exported from Wings 3D 1.4.1
mtllib wall.mtl
o wall
#8 vertices, 6 faces
v -0.50000000 0.25000000 0.50000000
v -0.50000000 1.45000000 0.50000000
v 0.50000000 1.45000000 0.50000000
v 0.50000000 0.25000000 0.50000000
v -0.50000000 0.25000000 -0.50000000
v -0.50000000 1.45000000 -0.50000000
v 0.50000000 1.45000000 -0.50000000
v 0.50000000 0.25000000 -0.50000000
vt 8.5434667e-3 0.29379307
vt 8.5434667e-3 0.99219307
vt 8.5434667e-3 0.29379307
vt 8.5434667e-3 0.99219307
vt 8.5434667e-3 0.99219307
vt 0.59054347 0.29379307
vt 0.59054347 0.29379307
vt 0.59054347 0.99219307
vt 0.64248320 4.5371733e-2
vt 0.64248320 0.37870507
vt 0.97581653 4.5371733e-2
vt 0.97581653 0.37870507
vn -0.57735027 -0.57735027 0.57735027
vn -0.57735027 0.57735027 0.57735027
vn 0.57735027 0.57735027 0.57735027
vn 0.57735027 -0.57735027 0.57735027
vn -0.57735027 -0.57735027 -0.57735027
vn -0.57735027 0.57735027 -0.57735027
vn 0.57735027 0.57735027 -0.57735027
vn 0.57735027 -0.57735027 -0.57735027
g wall_default
usemtl default
s 1
f 1//1 5//5 8//8 4//4
g wall_wall_auv
usemtl wall_auv
s 1
f 1/1/1 4/7/4 3/8/3 2/2/2
f 2/8/2 6/4/6 5/3/5 1/7/1
f 3/11/3 7/12/7 6/10/6 2/9/2
f 4/1/4 8/7/8 7/8/7 3/2/3
f 6/8/6 7/5/7 8/3/8 5/6/5
