/* XPM */
static char *werewolf_sonata[] = {
/* columns rows colors chars-per-pixel */
"32 32 247 2 ",
"   c #6C5353",
".  c #6D5353",
"X  c #6E5353",
"o  c #6B5454",
"O  c #6C5454",
"+  c #6D5454",
"@  c #6D5555",
"#  c #6E5454",
"$  c #6E5555",
"%  c #6E5656",
"&  c #6F5656",
"*  c #6F5757",
"=  c #705757",
"-  c #705858",
";  c #715858",
":  c #715959",
">  c #735A5A",
",  c #735B5B",
"<  c #745A5A",
"1  c #745B5B",
"2  c #735C5C",
"3  c #755C5C",
"4  c #755D5D",
"5  c #765C5C",
"6  c #765D5D",
"7  c #775E5E",
"8  c #775F5F",
"9  c #785E5E",
"0  c #785F5F",
"q  c #795F5F",
"w  c #786060",
"e  c #796060",
"r  c #796161",
"t  c #7A6161",
"y  c #7B6161",
"u  c #7A6262",
"i  c #7B6262",
"p  c #7B6363",
"a  c #7D6262",
"s  c #7C6363",
"d  c #7D6464",
"f  c #7E6565",
"g  c #7F6565",
"h  c #7E6666",
"j  c #7F6666",
"k  c #806666",
"l  c #806767",
"z  c #816767",
"x  c #826767",
"c  c #806868",
"v  c #816868",
"b  c #816969",
"n  c #826969",
"m  c #836969",
"M  c #836A6A",
"N  c #846A6A",
"B  c #846B6B",
"V  c #856B6B",
"C  c #846C6C",
"Z  c #856C6C",
"A  c #866D6D",
"S  c #866E6E",
"D  c #876E6E",
"F  c #886E6E",
"G  c #896F6F",
"H  c #897070",
"J  c #8A7171",
"K  c #8A7373",
"L  c #8B7373",
"P  c #8C7272",
"I  c #8C7373",
"U  c #8C7474",
"Y  c #8D7474",
"T  c #8F7575",
"R  c #8F7676",
"E  c #8B7A79",
"W  c #8B7B7B",
"Q  c #907676",
"!  c #907777",
"~  c #917777",
"^  c #917878",
"/  c #927878",
"(  c #927979",
")  c #937979",
"_  c #937A7A",
"`  c #947B7B",
"'  c #957C7C",
"]  c #957D7D",
"[  c #967C7C",
"{  c #977D7D",
"}  c #967E7E",
"|  c #977E7E",
" . c #987E7E",
".. c #987F7F",
"X. c #997F7F",
"o. c #828200",
"O. c #8F8F07",
"+. c #86860C",
"@. c #8B8B13",
"#. c #959519",
"$. c #919127",
"%. c #979733",
"&. c #9D9D35",
"*. c #9D9D36",
"=. c #9C9C3C",
"-. c #9D9D43",
";. c #A2A24E",
":. c #A2A24F",
">. c #ACAC63",
",. c #ACAC67",
"<. c #ABAB68",
"1. c #B4B460",
"2. c #AEAE70",
"3. c #B2B27A",
"4. c #BDBD7A",
"5. c #BDBD7C",
"6. c #988080",
"7. c #998080",
"8. c #998181",
"9. c #9A8080",
"0. c #9A8181",
"q. c #9B8181",
"w. c #9A8282",
"e. c #9B8282",
"r. c #9C8282",
"t. c #9C8383",
"y. c #9D8484",
"u. c #9E8585",
"i. c #9F8585",
"p. c #9F8686",
"a. c #968886",
"s. c #998C8C",
"d. c #A08686",
"f. c #A08787",
"g. c #A18787",
"h. c #A28787",
"j. c #A78686",
"k. c #A18888",
"l. c #A18989",
"z. c #A38A8A",
"x. c #A48B8B",
"c. c #A18C8C",
"v. c #A68C8C",
"b. c #A68D8D",
"n. c #A78D8D",
"m. c #A68E8E",
"M. c #A78E8E",
"N. c #A78F8F",
"B. c #A88D8D",
"V. c #A88E8E",
"C. c #A98E8E",
"Z. c #A88F8F",
"A. c #A99090",
"S. c #A99191",
"D. c #AA9090",
"F. c #AA9191",
"G. c #AB9191",
"H. c #AA9292",
"J. c #AB9292",
"K. c #AC9393",
"L. c #A69D96",
"P. c #A69C9C",
"I. c #A79E9D",
"U. c #AD9898",
"Y. c #AF9999",
"T. c #AD9C9C",
"R. c #B19D9D",
"E. c #B19E9E",
"W. c #ABA49D",
"Q. c #A9A0A0",
"!. c #ACA4A4",
"~. c #B4A3A3",
"^. c #B6A7A7",
"/. c #B7AAAA",
"(. c #B9AFAF",
"). c #B9B2B2",
"_. c #BEB3B3",
"`. c #BDB4B4",
"'. c #BFB7B5",
"]. c #BDB8B8",
"[. c #CC9F9F",
"{. c #D09D9D",
"}. c #D7A5A5",
"|. c #C0B7B7",
" X c #C0BBB3",
".X c #C0B8B8",
"XX c #C2BBBB",
"oX c #C3BCBC",
"OX c #C2BEBE",
"+X c #E9AEAE",
"@X c #E9AFAF",
"#X c #EAAFAF",
"$X c #E6B2B2",
"%X c #EAB2B2",
"&X c #C4C48D",
"*X c #C1C191",
"=X c #C0C09E",
"-X c #C4C4AA",
";X c #C5C5AF",
":X c #C5C4B4",
">X c #C9C9B2",
",X c #C9C9B7",
"<X c #CCCCB5",
"1X c #C6C5BA",
"2X c #D4D4B5",
"3X c #DADAB4",
"4X c #DDDDBD",
"5X c #C5C0C0",
"6X c #C7C4C4",
"7X c #CAC7C7",
"8X c #CAC9C0",
"9X c #CDCDC2",
"0X c #CBC9C9",
"qX c #CCCBCB",
"wX c #CDCBCB",
"eX c #CECDCD",
"rX c #D2D2C1",
"tX c #D0D0C3",
"yX c #D9D9C7",
"uX c LightGray",
"iX c gray83",
"pX c #D5D5D5",
"aX c #D7D7D4",
"sX c gray84",
"dX c #D7D7D7",
"fX c #D9D9D3",
"gX c #D8D8D8",
"hX c gray85",
"jX c #DBDBD8",
"kX c #DADADA",
"lX c gainsboro",
"zX c #DDDDDD",
"xX c gray87",
"cX c #EFCCCC",
"vX c #F0D3D3",
"bX c #F2D2D2",
"nX c #F5DEDE",
"mX c #E1E1CB",
"MX c #E3E3DE",
"NX c #E9E9DF",
"BX c #E2E2E0",
"VX c #E6E6E6",
"CX c #EAEAE2",
"ZX c gray91",
"AX c gray93",
"SX c #F7E2E2",
"DX c None",
/* pixels */
"DXDXDXDXDXDXX DXDXDXDXDXDXDXDXDXDXDXDXDXDXDXDXDXDXDXDXDXDXDXDXDX",
"DXDXDXDXDXDXX = < DXDXDXDXDXDXDXDXDXDXDXDXDXDXDXDXDXDXDXDXDXDXDX",
"DXDXDXDXDXDXX - 0 u DXDXDXDXDXDXDXDXDXDXDXDXDXDXDXDXDXDXDXDXDXDX",
"DXDXDXDXDXDX* * 0 l l DXDXDXDXDXDXDXDXDXDXDXDXDXDXDXDXDX* DXDXDX",
"DXDXDXDXDXDX* * 6 g V l DXDXDXDXDXDXDXDXDXDXDXDXDXDX6 < * DXDXDX",
"DXDXDXDXDXDX  X - 0 n V g DXDXDXDXDXDXDXDXDXDXDXs l g 0 * DXDXDX",
"DXDXDXDXDXDXX   * - u l g 6 DXDXDXDXDXDXDXDXDXn P P C u = DXDXDX",
"DXDXDXDXDXDXDX  X * < u u u DXDXDXDXDXDXDXDXn (  .( n < * DXDXDX",
"DXDXDXDXDXDXDX    o * - 0 s u s u 0 DXDXDXg U q. .P s - DXDXDXDX",
"DXDXDXDXDXDXX     X * - u C U U Q U F l g J  .r.Q l - * DXDXDXDX",
"DXDXDXDXDX      W I.!.s.j ! q.f.f.f. .' ( ' q.' C u = DXDXDXDXDX",
"DXDXDXDX      I.9XtXaXiXOXq.x.G.G.G.Z.x.z.f.f.( l < * DXDXDXDXDX",
"DXDXDXX     E ;X,.>.2XMXdX(.Z.J.R.OX0X7X_.G.z.' V 0 DXDXDXDXDXDX",
"DXDXDX      L.2.+.*.3XNXlX0XG.R.1X<XrXlXdX5XZ.f.Q l DXDXDXDXDXDX",
"DXDXDXX     W.<.o.#.4.CXzX0XJ. X3.%.4.mXVXpX^.n.y.Q l DXDXDXDXDX",
"DXDXDXo     a.-X:.=.*XBXhXXXJ.:X$.O.1.4XAXhX].G.n.r.P u DXDXDXDX",
"DXDXDXDXo   - ].<X<XfXhXeXU.J.1X-.@.*.&XZXgX_.J.G.z.' n DXDXDXDX",
"DXDXDXDXDX    2 P.6XwX).x.Z.K.|.=X;.>.yXzXuX~.G.n.f.( n DXDXDXDX",
"DXDXDXDXDXDXX     O - V  .Z.J.Y.7XpXhXhXiX_.n.z.t.` Z DXDXDXDXDX",
"DXDXDXDXDXDXDXDXO O < V 9.B.J.Z.G./.XX`.I.y.q.( C DXDXDXDXDXDXDX",
"DXDXDXDXDXDXDXDXDXX - Z  .Z.J.Z.f.7.` ( Q J V DXDXDXDXDXDXDXDXDX",
"DXDXDXDXDXDXDXDXDX* - V q.Z.J.x.' C DXDXDXDXDXDXDXDXDXDXDXDXDXDX",
"DXDXDXDXDXDXDXDXDX* < V  .Z.Z.y.U s DXDXDXDXDXDXDXDXDXDXDXDXDXDX",
"DXDXDXDXDXDXDXDXDX* - V q.Z.Z.r.H DXDXDXDXDXDXDXDXDXDXDXDXDXDXDX",
"DXDXDXDXDXDXDXDXDX* < C r.Z.Z. .n DXDXDXDXDXDXDXDXDXDXDXDXDXDXDX",
"DXDXDXDXDXDXDXDXDX* - C r.x.f.U DXDXDXDXDXDXDXDXDXDXDXDXDXDXDXDX",
"DXDXDXDXDXDXDXDXDXDX- n  .f. .V DXDXDXDXDXDXDXDXDXDXDXDXDXDXDXDX",
"DXDXDXDXDXDXDXDXDXDX- g U ` F DXDXDXDXDXDXDXDXDXDXDXDXDXDXDXDXDX",
"DXDXDXDXDXDXDXDXDXDX{.}.[.j.DXDXDXDXDXDXDXDXDXDXDXDXDXDXDXDXDXDX",
"DXDXDXDXDXDXDXDXDX#X#X$XvXnXDXDXDXDXDXDXDXDXDXDXDXDXDXDXDXDXDXDX",
"DXDXDXDXDXDXDXDXDXDX#X%XvXSXcXDXDXDXDXDXDXDXDXDXDXDXDXDXDXDXDXDX",
"DXDXDXDXDXDXDXDXDXDXDX#X#X#XDXDXDXDXDXDXDXDXDXDXDXDXDXDXDXDXDXDX"
};
